<?xml version="1.0" encoding="UTF-8"?>
<svg width="24px" height="40px" viewBox="0 0 24 40" version="1.1" xmlns="http://www.w3.org/2000/svg" xmlns:xlink="http://www.w3.org/1999/xlink">
    <!-- Generator: Sketch 64 (93537) - https://sketch.com -->
    <title>Group 34</title>
    <desc>Created with Sketch.</desc>
    <g id="Товары" stroke="none" stroke-width="1" fill="none" fill-rule="evenodd">
        <g id="Main" transform="translate(-2054.000000, -780.000000)" fill="#050218" fill-rule="nonzero">
            <g id="Меню-фильтров" transform="translate(2041.000000, 213.000000)">
                <g id="Group-34" transform="translate(13.000000, 567.000000)">
                    <g id="left-arrow" transform="translate(12.000000, 20.000000) scale(-1, 1) translate(-12.000000, -20.000000) ">
                        <path d="M9.13155107,19.9499123 L22.4979,6.44948967 C23.9536915,4.9791822 23.9536915,2.5731748 22.4979,1.1027892 C21.0421084,-0.3675964 18.5277142,-0.3675964 17.2042673,1.1027892 L1.05875746,17.276562 C0.397111398,17.944841 0,19.0142905 0,19.9499123 C0,21.0192836 0.397034049,21.9549836 1.05875746,22.6232625 L17.0719227,38.9306287 C17.7336461,39.5989857 18.7923262,40 19.718739,40 C20.7774964,40 21.7039092,39.5990639 22.3655553,38.9306287 C23.8213468,37.4603212 23.8213468,35.0543138 22.3655553,33.5839282 L9.13155107,19.9499123 Z M20.6450744,36.9255574 C20.2481177,37.3264935 19.4540496,37.3264935 19.0570155,36.9255574 L2.91150568,20.7519408 C2.64681631,20.484598 2.51447163,20.2172551 2.51447163,19.9499123 C2.51447163,19.6825694 2.64681631,19.4152266 2.91150568,19.1478838 L19.0570155,2.97418905 C19.1893602,2.70684622 19.4539722,2.57325292 19.8510836,2.57325292 C20.248195,2.57325292 20.3804624,2.70692434 20.6451517,2.97418905 C21.0421084,3.37512518 21.0421084,4.17715369 20.6451517,4.57816795 L6.2200454,19.0142124 C5.95535603,19.2815552 5.82301135,19.548898 5.82301135,19.9498342 C5.82301135,20.3507703 5.95535603,20.6181912 6.2200454,20.8855341 L20.5128071,35.3215785 C21.0421858,35.8562642 21.0421858,36.5246213 20.6450744,36.9255574 Z" id="Shape"></path>
                    </g>
                </g>
            </g>
        </g>
    </g>
</svg>