<?xml version="1.0" encoding="UTF-8"?>
<svg width="42px" height="28px" viewBox="0 0 42 28" version="1.1" xmlns="http://www.w3.org/2000/svg" xmlns:xlink="http://www.w3.org/1999/xlink">
    <!-- Generator: Sketch 64 (93537) - https://sketch.com -->
    <title>left-arrow</title>
    <desc>Created with Sketch.</desc>
    <defs>
        <path d="M2.82259016,5.98622588 L6.22229195,2.27360966 C6.59256935,1.86927511 6.59256935,1.20762307 6.22229195,0.80326703 C5.85201454,0.39891099 5.21248382,0.39891099 4.875868,0.80326703 L0.769292659,5.25105456 C0.601004421,5.43483128 0.5,5.72892988 0.5,5.98622588 C0.5,6.280303 0.600984747,6.53762048 0.769292659,6.72139719 L4.84220641,11.2059229 C5.01051433,11.3897211 5.27978731,11.5 5.51541839,11.5 C5.78471105,11.5 6.02034212,11.3897426 6.18863036,11.2059229 C6.55890777,10.8015883 6.55890777,10.1399363 6.18863036,9.73558025 L2.82259016,5.98622588 Z M5.75102979,10.6545283 C5.65006472,10.7647857 5.44809522,10.7647857 5.34711048,10.6545283 L1.24053514,6.20678372 C1.17321197,6.13326444 1.13955039,6.05974516 1.13955039,5.98622588 C1.13955039,5.9127066 1.17321197,5.83918732 1.24053514,5.76566804 L5.34711048,1.31790199 C5.38077206,1.24438271 5.44807555,1.20764455 5.54907997,1.20764455 C5.65008439,1.20764455 5.6837263,1.24440419 5.75104947,1.31790199 C5.85201454,1.42815943 5.85201454,1.64871727 5.75104947,1.75899619 L2.08205503,5.7289084 C2.01473186,5.80242768 1.98107028,5.87594696 1.98107028,5.98620439 C1.98107028,6.09646183 2.01473186,6.17000259 2.08205503,6.24352187 L5.71738788,10.2134341 C5.85203421,10.3604726 5.85203421,10.5442708 5.75102979,10.6545283 Z" id="path-1"></path>
        <filter x="-500.0%" y="-272.7%" width="1100.0%" height="645.5%" filterUnits="objectBoundingBox" id="filter-2">
            <feOffset dx="0" dy="0" in="SourceAlpha" result="shadowOffsetOuter1"></feOffset>
            <feGaussianBlur stdDeviation="10" in="shadowOffsetOuter1" result="shadowBlurOuter1"></feGaussianBlur>
            <feColorMatrix values="0 0 0 0 1   0 0 0 0 0.00297256098   0 0 0 0 0.225212069  0 0 0 1 0" type="matrix" in="shadowBlurOuter1"></feColorMatrix>
        </filter>
    </defs>
    <g id="left-arrow" stroke="none" stroke-width="1" fill="none" fill-rule="evenodd">
        <g transform="translate(21.500000, 14.000000) scale(1, -1) rotate(90.000000) translate(-21.500000, -14.000000) translate(18.000000, 8.000000)" fill-rule="nonzero" id="Shape">
            <g>
                <use fill="black" fill-opacity="1" filter="url(#filter-2)" xlink:href="#path-1"></use>
                <use fill="#FF0139" xlink:href="#path-1"></use>
            </g>
        </g>
    </g>
</svg>