<?xml version="1.0" encoding="UTF-8"?>
<svg width="25px" height="30px" viewBox="0 0 25 30" version="1.1" xmlns="http://www.w3.org/2000/svg" xmlns:xlink="http://www.w3.org/1999/xlink">
    <!-- Generator: Sketch 64 (93537) - https://sketch.com -->
    <title>bin</title>
    <desc>Created with Sketch.</desc>
    <g id="Symbols" stroke="none" stroke-width="1" fill="none" fill-rule="evenodd">
        <g id="bin" fill="#050218" fill-rule="nonzero">
            <g>
                <path d="M16.3277591,10.869072 C15.9396956,10.869072 15.625183,11.1835846 15.625183,11.5716481 L15.625183,24.8503367 C15.625183,25.2381257 15.9396956,25.5529128 16.3277591,25.5529128 C16.7158226,25.5529128 17.0303352,25.2381257 17.0303352,24.8503367 L17.0303352,11.5716481 C17.0303352,11.1835846 16.7158226,10.869072 16.3277591,10.869072 Z" id="Path"></path>
                <path d="M8.03736098,10.869072 C7.64929742,10.869072 7.33478487,11.1835846 7.33478487,11.5716481 L7.33478487,24.8503367 C7.33478487,25.2381257 7.64929742,25.5529128 8.03736098,25.5529128 C8.42542447,25.5529128 8.7399371,25.2381257 8.7399371,24.8503367 L8.7399371,11.5716481 C8.7399371,11.1835846 8.42542447,10.869072 8.03736098,10.869072 Z" id="Path"></path>
                <path d="M1.99520642,8.9312244 L1.99520642,26.2412178 C1.99520642,27.2643443 2.37037103,28.225172 3.02574281,28.9145748 C3.67809569,29.6058987 4.58595583,29.9983533 5.53608021,30 L18.8290398,30 C19.7794387,29.9983533 20.6872988,29.6058987 21.3393772,28.9145748 C21.994749,28.225172 22.3699137,27.2643443 22.3699137,26.2412178 L22.3699137,8.9312244 C23.6726983,8.58542522 24.5168874,7.32682595 24.3426156,5.99001021 C24.1680694,4.65346897 23.0294021,3.65367021 21.6813341,3.65339578 L18.0841994,3.65339578 L18.0841994,2.77517564 C18.088316,2.03664738 17.7963078,1.32748461 17.2734924,0.805766979 C16.750677,0.28432377 16.0404164,-0.00603776347 15.3018882,-9.23127389e-05 L9.06323185,-9.23127389e-05 C8.32470358,-0.00603776347 7.61444304,0.28432377 7.09162763,0.805766979 C6.56881222,1.32748461 6.27680403,2.03664738 6.2809207,2.77517564 L6.2809207,3.65339578 L2.68378588,3.65339578 C1.33571796,3.65367021 0.197050679,4.65346897 0.022504356,5.99001021 C-0.1517674,7.32682595 0.69242171,8.58542522 1.99520642,8.9312244 Z M18.8290398,28.5948478 L5.53608021,28.5948478 C4.33483974,28.5948478 3.40035864,27.5629391 3.40035864,26.2412178 L3.40035864,8.99297424 L20.9647615,8.99297424 L20.9647615,26.2412178 C20.9647615,27.5629391 20.0302803,28.5948478 18.8290398,28.5948478 Z M7.68607293,2.77517564 C7.68140733,2.40934208 7.82521588,2.05723068 8.08483974,1.79897909 C8.34418911,1.54072749 8.69712379,1.39884 9.06323185,1.40515222 L15.3018882,1.40515222 C15.6679962,1.39884 16.0209309,1.54072749 16.2802803,1.79897909 C16.5399041,2.05695625 16.6837127,2.40934208 16.6790472,2.77517564 L16.6790472,3.65339578 L7.68607293,3.65339578 L7.68607293,2.77517564 Z M2.68378588,5.05854801 L21.6813341,5.05854801 C22.3797936,5.05854801 22.9459711,5.62472557 22.9459711,6.32318501 C22.9459711,7.02164445 22.3797936,7.58782201 21.6813341,7.58782201 L2.68378588,7.58782201 C1.98532637,7.58782201 1.41914888,7.02164445 1.41914888,6.32318501 C1.41914888,5.62472557 1.98532637,5.05854801 2.68378588,5.05854801 Z" id="Shape"></path>
                <path d="M12.18256,10.869072 C11.7944965,10.869072 11.4799839,11.1835846 11.4799839,11.5716481 L11.4799839,24.8503367 C11.4799839,25.2381257 11.7944965,25.5529128 12.18256,25.5529128 C12.5706235,25.5529128 12.8851362,25.2381257 12.8851362,24.8503367 L12.8851362,11.5716481 C12.8851362,11.1835846 12.5706235,10.869072 12.18256,10.869072 Z" id="Path"></path>
            </g>
        </g>
    </g>
</svg>