<?xml version="1.0" encoding="UTF-8"?>
<svg width="20px" height="20px" viewBox="0 0 20 20" version="1.1" xmlns="http://www.w3.org/2000/svg" xmlns:xlink="http://www.w3.org/1999/xlink">
    <!-- Generator: Sketch 64 (93537) - https://sketch.com -->
    <title>call</title>
    <desc>Created with Sketch.</desc>
    <g id="Товары" stroke="none" stroke-width="1" fill="none" fill-rule="evenodd">
        <g id="Чат" transform="translate(-273.000000, -617.000000)" fill="#000000" fill-rule="nonzero">
            <g transform="translate(82.000000, 507.000000)" id="manager-ava">
                <g transform="translate(38.000000, 33.000000)">
                    <g id="Group-53" transform="translate(153.000000, 77.000000)">
                        <g id="call">
                            <path d="M10,0 C4.4775,0 0,4.4775 0,10 C0,15.5225 4.4775,20 10,20 C15.5225,20 20,15.5225 20,10 C20,4.4775 15.5225,0 10,0 Z M15,15.625 C9.14125,15.625 4.375,10.85875 4.375,5 C4.375,4.655 4.655,4.375 5,4.375 L7.3075,4.375 C7.6525,4.375 7.9325,4.655 7.9325,5 C7.9325,6.08 8.1675,7.10875 8.63125,8.05625 C8.705,8.20625 8.715,8.3775 8.66,8.535 C8.60625,8.6925 8.49125,8.82125 8.34125,8.89375 L7.40875,9.34375 C8.185,10.695 9.305,11.81625 10.655,12.59 L11.105,11.65875 C11.1775,11.50875 11.30625,11.395 11.46375,11.34 C11.62125,11.28625 11.79375,11.29625 11.9425,11.36875 C12.8925,11.8325 13.92,12.0675 14.99875,12.0675 C15.34375,12.0675 15.62375,12.3475 15.62375,12.6925 L15.62375,15 L15.625,15 C15.625,15.345 15.345,15.625 15,15.625 Z" id="Shape"></path>
                        </g>
                    </g>
                </g>
            </g>
        </g>
    </g>
</svg>