<?xml version="1.0" encoding="UTF-8"?>
<svg width="64px" height="50px" viewBox="0 0 64 50" version="1.1" xmlns="http://www.w3.org/2000/svg" xmlns:xlink="http://www.w3.org/1999/xlink">
    <!-- Generator: Sketch 64 (93537) - https://sketch.com -->
    <title>shopping-cart</title>
    <desc>Created with Sketch.</desc>
    <g id="Товары" stroke="none" stroke-width="1" fill="none" fill-rule="evenodd">
        <g id="Main" transform="translate(-2341.000000, -83.000000)" fill="#000000" fill-rule="nonzero">
            <g id="Инфо-о-заказе" transform="translate(516.000000, 40.000000)">
                <g id="Group-37" transform="translate(1825.000000, 22.000000)">
                    <g id="shopping-cart" transform="translate(0.000000, 21.000000)">
                        <path d="M64,30.010125 L64,8.96775 C64,8.449875 63.58025,8.03025 63.0625,8.03025 L45.963625,8.03025 L45.963625,1.953625 C45.963625,0.884125 45.093625,0.014125 44.024125,0.014125 L34.004,0.014125 C32.9345,0.014125 32.0645,0.884125 32.0645,1.953625 L32.0645,8.03025 L29.9315,8.03025 L29.9315,5.961625 C29.9315,4.892125 29.0615,4.022125 27.992,4.022125 L21.979875,4.022125 C20.910375,4.022125 20.040375,4.892125 20.040375,5.961625 L20.040375,8.03025 L9.745,8.03025 L8.77975,5.30975 C8.081,3.341 6.208,2.018125 4.118875,2.018125 L0.9375,2.018125 C0.41975,2.018125 0,2.43775 0,2.955625 C0,3.473375 0.41975,3.893125 0.9375,3.893125 L4.118875,3.893125 C5.415875,3.893125 6.578875,4.714375 7.012625,5.936875 L16.1415,31.663875 C16.697375,33.23025 17.99675,34.386875 19.556625,34.794625 L15.939,42.2205 C15.6275,42.141125 15.3015,42.098625 14.965625,42.098625 C12.791125,42.098625 11.022125,43.86775 11.022125,46.04225 C11.022125,48.21675 12.791125,49.98575 14.965625,49.98575 C16.817125,49.98575 18.37375,48.702875 18.79575,46.97975 L56.226375,46.97975 C56.64825,48.703 58.205,49.98575 60.056375,49.98575 C62.230875,49.98575 64,48.216625 64,46.04225 C64,43.86775 62.230875,42.098625 60.056375,42.098625 C58.204875,42.098625 56.64825,43.3815 56.226375,45.10475 L18.79575,45.10475 C18.60375,44.3205 18.176875,43.627625 17.59375,43.10525 L21.563875,34.955625 L59.0545,34.955625 C61.7815,34.95575 64,32.737125 64,30.010125 Z M14.96575,48.110875 C13.825125,48.110875 12.89725,47.183 12.89725,46.042375 C12.89725,44.90175 13.825125,43.97375 14.96575,43.97375 C16.106375,43.97375 17.034375,44.90175 17.034375,46.042375 C17.034375,47.183 16.106375,48.110875 14.96575,48.110875 Z M60.0565,43.97375 C61.197125,43.97375 62.125,44.90175 62.125,46.042375 C62.125,47.183 61.197125,48.110875 60.0565,48.110875 C58.915875,48.110875 57.988,47.183 57.988,46.042375 C57.988,44.90175 58.915875,43.97375 60.0565,43.97375 Z M33.9395,1.953625 C33.9395,1.918125 33.968375,1.889125 34.004,1.889125 L44.024125,1.889125 C44.05975,1.889125 44.088625,1.918125 44.088625,1.953625 L44.088625,8.03025 L33.9395,8.03025 L33.9395,1.953625 Z M33.9395,9.90525 L44.088625,9.90525 L44.088625,29.008 C44.088625,29.043625 44.05975,29.0725 44.024125,29.0725 L34.004,29.0725 C33.968375,29.0725 33.9395,29.043625 33.9395,29.008 L33.9395,9.90525 Z M21.915375,5.961625 C21.915375,5.926125 21.94425,5.897125 21.979875,5.897125 L27.992,5.897125 C28.027625,5.897125 28.0565,5.926 28.0565,5.961625 L28.0565,8.03025 L21.915375,8.03025 L21.915375,5.961625 Z M17.90875,31.036875 L10.410375,9.90525 L28.056375,9.90525 L28.056375,29.008 C28.056375,29.043625 28.0275,29.0725 27.991875,29.0725 L21.97975,29.0725 C21.944125,29.0725 21.91525,29.043625 21.91525,29.008 L21.91525,12.97625 C21.91525,12.4585 21.4955,12.03875 20.97775,12.03875 C20.46,12.03875 20.04025,12.4585 20.04025,12.97625 L20.04025,29.008125 C20.04025,30.077625 20.91025,30.947625 21.97975,30.947625 L27.991875,30.947625 C29.061375,30.947625 29.931375,30.077625 29.931375,29.008125 L29.931375,9.90525 L32.064375,9.90525 L32.064375,29.008 C32.064375,30.0775 32.934375,30.9475 34.003875,30.9475 L44.024,30.9475 C45.0935,30.9475 45.9635,30.0775 45.9635,29.008 L45.9635,9.90525 L62.125,9.90525 L62.125,30.01 C62.125,31.703125 60.7475,33.080625 59.0545,33.080625 L20.8025,33.080625 C19.505375,33.080625 18.342375,32.259375 17.90875,31.036875 Z" id="Shape"></path>
                        <path d="M50.036375,30.947625 L58.0525,30.947625 C59.122,30.947625 59.992,30.077625 59.992,29.008125 L59.992,27.004 C59.992,26.48625 59.57225,26.0665 59.0545,26.0665 C58.53675,26.0665 58.117,26.48625 58.117,27.004 L58.117,29.008125 C58.117,29.04375 58.088125,29.072625 58.0525,29.072625 L50.036375,29.072625 C50.00075,29.072625 49.971875,29.04375 49.971875,29.008125 L49.971875,13.97775 C49.971875,13.94225 50.00075,13.91325 50.036375,13.91325 L58.0525,13.91325 C58.088125,13.91325 58.117,13.942125 58.117,13.97775 L58.117,22.99575 C58.117,23.513625 58.53675,23.93325 59.0545,23.93325 C59.57225,23.93325 59.992,23.513625 59.992,22.99575 L59.992,13.97775 C59.992,12.90825 59.122,12.03825 58.0525,12.03825 L50.036375,12.03825 C48.966875,12.03825 48.096875,12.90825 48.096875,13.97775 L48.096875,29.008 C48.09675,30.0775 48.966875,30.947625 50.036375,30.947625 Z" id="Path"></path>
                    </g>
                </g>
            </g>
        </g>
    </g>
</svg>