<?xml version="1.0" encoding="UTF-8"?>
<svg width="120px" height="120px" viewBox="0 0 120 120" version="1.1" xmlns="http://www.w3.org/2000/svg" xmlns:xlink="http://www.w3.org/1999/xlink">
    <!-- Generator: Sketch 64 (93537) - https://sketch.com -->
    <title>chat</title>
    <desc>Created with Sketch.</desc>
    <g id="chat" stroke="none" stroke-width="1" fill="none" fill-rule="evenodd">
        <g id="Group-50">
            <path d="M60,120 C72.0436706,120 83.2585494,116.451521 92.6561664,110.343032 C96.6521663,107.745617 109.636289,115.185685 112.899146,111.738528 C115.234203,109.271578 108.045362,96.1061395 109.938163,93.2707684 C116.294446,83.7492064 120,72.3073424 120,60 C120,26.862915 93.137085,0 60,0 C26.862915,0 0,26.862915 0,60 C0,93.137085 26.862915,120 60,120 Z" id="Oval" fill="#FF0139"></path>
            <g id="talk" transform="translate(22.000000, 32.000000)" fill="#050218" fill-rule="nonzero">
                <path d="M64.8410758,12.7933985 L47.0415648,12.7933985 L47.0415648,11.5220049 C47.0341152,5.20538848 41.9156384,0.0869116748 35.599022,0.0794621027 L11.4425428,0.0794621027 C5.12592638,0.0869116748 0.00744957213,5.20538848 0,11.5220049 L0,26.7787286 C0.00744957213,33.095345 5.12592638,38.2138218 11.4425428,38.2212714 L12.7139364,38.2212714 L12.7139364,48.3924205 C12.7139364,48.906441 13.0237145,49.3701769 13.4986247,49.5669697 C13.9735349,49.7637626 14.5204578,49.6545022 14.8842451,49.2913356 L25.9543093,38.2212714 L29.2420538,38.2212714 L29.2420538,39.492665 C29.2495034,45.8092814 34.3679802,50.9277583 40.6845966,50.9352078 L47.786522,50.9352078 L61.3993735,64.5480593 C61.7631608,64.9112259 62.3100837,65.0204863 62.7849939,64.8236935 C63.2599041,64.6269006 63.5696822,64.1631647 63.5696822,63.6491443 L63.5696822,50.9352078 L64.8410758,50.9352078 C71.1576922,50.9277583 76.276169,45.8092814 76.2836186,39.492665 L76.2836186,24.2359413 C76.276169,17.9193249 71.1576922,12.8008481 64.8410758,12.7933985 Z M25.4278729,35.6784841 C25.0907797,35.6784841 24.7673441,35.8125764 24.5289578,36.0509627 L15.2567237,45.3231968 L15.2567237,36.9498778 C15.2567237,36.2477555 14.6874523,35.6784841 13.9853301,35.6784841 L11.4425428,35.6784841 C6.52955005,35.672897 2.54837443,31.6917213 2.54278729,26.7787286 L2.54278729,11.5220049 C2.54837443,6.60901215 6.52955005,2.62783653 11.4425428,2.62224939 L35.599022,2.62224939 C40.5120147,2.62783653 44.4931904,6.60901215 44.4987775,11.5220049 L44.4987775,12.7933985 L40.6845966,12.7933985 C34.3679802,12.8008481 29.2495034,17.9193249 29.2420538,24.2359413 L29.2420538,35.6784841 L25.4278729,35.6784841 Z M73.7408313,39.492665 C73.7352442,44.4056578 69.7540685,48.3868334 64.8410758,48.3924205 L62.2982885,48.3924205 C61.5961663,48.3924205 61.0268949,48.961692 61.0268949,49.6638142 L61.0268949,60.5799205 L49.2118735,48.7648991 C48.9734872,48.5265128 48.6500516,48.3924205 48.3129584,48.3924205 L40.6845966,48.3924205 C35.7716038,48.3868334 31.7904282,44.4056578 31.7848411,39.492665 L31.7848411,24.2359413 C31.7904282,19.3229486 35.7716038,15.341773 40.6845966,15.3361858 L64.8410758,15.3361858 C69.7540685,15.341773 73.7352442,19.3229486 73.7408313,24.2359413 L73.7408313,39.492665 Z" id="Shape"></path>
                <path d="M67.3838631,22.9645477 L38.1418093,22.9645477 C37.4396871,22.9645477 36.8704156,23.5338191 36.8704156,24.2359413 C36.8704156,24.9380635 37.4396871,25.507335 38.1418093,25.507335 L67.3838631,25.507335 C68.0859853,25.507335 68.6552567,24.9380635 68.6552567,24.2359413 C68.6552567,23.5338191 68.0859853,22.9645477 67.3838631,22.9645477 Z" id="Path"></path>
                <path d="M67.3838631,30.5929095 L38.1418093,30.5929095 C37.4396871,30.5929095 36.8704156,31.162181 36.8704156,31.8643032 C36.8704156,32.5664254 37.4396871,33.1356968 38.1418093,33.1356968 L67.3838631,33.1356968 C68.0859853,33.1356968 68.6552567,32.5664254 68.6552567,31.8643032 C68.6552567,31.162181 68.0859853,30.5929095 67.3838631,30.5929095 Z" id="Path"></path>
                <path d="M67.3838631,38.2212714 L38.1418093,38.2212714 C37.4396871,38.2212714 36.8704156,38.7905428 36.8704156,39.492665 C36.8704156,40.1947872 37.4396871,40.7640587 38.1418093,40.7640587 L67.3838631,40.7640587 C68.0859853,40.7640587 68.6552567,40.1947872 68.6552567,39.492665 C68.6552567,38.7905428 68.0859853,38.2212714 67.3838631,38.2212714 Z" id="Path"></path>
                <path d="M7.62836186,12.7933985 L34.3276284,12.7933985 C35.0297506,12.7933985 35.599022,12.2241271 35.599022,11.5220049 C35.599022,10.8198827 35.0297506,10.2506112 34.3276284,10.2506112 L7.62836186,10.2506112 C6.92623965,10.2506112 6.35696822,10.8198827 6.35696822,11.5220049 C6.35696822,12.2241271 6.92623965,12.7933985 7.62836186,12.7933985 Z" id="Path"></path>
                <path d="M26.6992665,17.8789731 L7.62836186,17.8789731 C6.92623965,17.8789731 6.35696822,18.4482445 6.35696822,19.1503667 C6.35696822,19.852489 6.92623965,20.4217604 7.62836186,20.4217604 L26.6992665,20.4217604 C27.4013887,20.4217604 27.9706601,19.852489 27.9706601,19.1503667 C27.9706601,18.4482445 27.4013887,17.8789731 26.6992665,17.8789731 Z" id="Path"></path>
                <path d="M25.4278729,25.507335 L7.62836186,25.507335 C6.92623965,25.507335 6.35696822,26.0766064 6.35696822,26.7787286 C6.35696822,27.4808508 6.92623965,28.0501222 7.62836186,28.0501222 L25.4278729,28.0501222 C26.1299951,28.0501222 26.6992665,27.4808508 26.6992665,26.7787286 C26.6992665,26.0766064 26.1299951,25.507335 25.4278729,25.507335 Z" id="Path"></path>
            </g>
        </g>
    </g>
</svg>