<?xml version="1.0" encoding="UTF-8"?>
<svg width="89px" height="89px" viewBox="0 0 89 89" version="1.1" xmlns="http://www.w3.org/2000/svg" xmlns:xlink="http://www.w3.org/1999/xlink">
    <!-- Generator: Sketch 64 (93537) - https://sketch.com -->
    <title>contract</title>
    <desc>Created with Sketch.</desc>
    <defs>
        <path d="M49.8128086,11.8255425 C49.6410473,11.1868178 49.2219984,10.642298 48.6486486,10.3121752 C48.0748928,9.98042812 47.3927203,9.89068997 46.7527774,10.0624513 C46.1136467,10.2346187 45.5691268,10.6532615 45.2390041,11.2266112 L44.8232036,11.9502014 C44.4281121,11.7232166 43.9233856,11.8568087 43.6923401,12.24987 L41.5800416,15.8503606 L40.8564514,15.4345601 C40.6647933,15.3237071 40.4365904,15.293659 40.2230054,15.3513189 C40.0090144,15.4093848 39.8271018,15.5498798 39.7170608,15.7423499 C39.4917002,16.1398779 39.6289469,16.6450103 40.0248505,16.8732134 L40.7484407,17.2890138 L33.6798337,29.5384778 L31.9333907,34.2040508 L31.1017899,35.7588357 C30.6149298,36.6058667 30.6669049,37.6587675 31.234976,38.4534174 L29.3638741,40.7484407 L28.840063,39.4348525 C28.603739,38.849321 28.0567827,38.4481386 27.4278034,38.399006 C26.798418,38.3494673 26.1954262,38.6605055 25.8709881,39.2017769 L25.5717256,39.7089397 L25.2891112,36.3825363 C25.2241424,35.5956016 24.6146537,34.9629677 23.8309674,34.8679509 C23.0468751,34.7733401 22.3046062,35.2431458 22.0540703,35.9919114 L20.0083648,42.129028 C19.8654334,42.563101 20.0993211,43.0308765 20.5321758,43.1770563 C20.6133868,43.2148194 20.7006887,43.2375585 20.7900208,43.2432481 C21.1473493,43.2444614 21.4656965,43.0166645 21.580204,42.6780145 L23.6173824,36.5408979 L23.9085239,39.9168399 C23.9686201,40.6371817 24.4863403,41.2361129 25.1904398,41.399347 C25.8945394,41.5625812 26.6230022,41.2523551 26.9937306,40.632309 L27.3015203,40.1247401 L27.8172102,41.4306133 C28.0360739,41.9808179 28.5310551,42.3734732 29.1169926,42.4607751 C29.7029301,42.5480769 30.2908979,42.3170315 30.6612202,41.8545349 L32.598915,39.401556 C32.8133121,39.4575916 33.034206,39.4856094 33.2559122,39.4847972 C34.1472031,39.4917003 34.9747433,39.0223006 35.4262766,38.2536382 L36.2578774,36.8649299 L39.4263254,33.0147154 L46.5696466,20.6154171 L47.2932368,21.0312175 C47.4861129,21.1416645 47.626608,21.3239832 47.6838617,21.5387864 C47.7415216,21.7519653 47.7114735,21.9793562 47.6010265,22.1706081 L44.2746232,27.9337481 C44.1491522,28.1229697 44.1065164,28.3552332 44.1568672,28.5769393 C44.2072181,28.7982393 44.3456828,28.9894913 44.5405893,29.1060291 C44.7322473,29.2172882 44.9604502,29.2473363 45.1740352,29.1896765 C45.3880262,29.1316106 45.5699389,28.9911155 45.6799798,28.7986454 L49.0063832,23.0355055 C49.3381301,22.4617496 49.4278684,21.7795771 49.255701,21.1396343 C49.0835337,20.5005035 48.6648909,19.9559836 48.0915411,19.6258609 L47.3679509,19.2100604 L49.446953,15.6091639 C49.6739377,15.2140723 49.5403456,14.7097518 49.1476903,14.4783004 L49.5634907,13.7547102 C49.904171,13.1720212 49.9943152,12.4760428 49.8128086,11.8255425 L49.8128086,11.8255425 Z M46.6776572,12.058212 C46.7876981,11.8657419 46.970423,11.7248408 47.1852261,11.6675871 C47.398811,11.6147999 47.6245778,11.6444419 47.8170478,11.7508283 C48.009924,11.8608693 48.150419,12.0435941 48.2080789,12.2579912 C48.260866,12.4715761 48.231224,12.6973428 48.1248376,12.8898128 L47.7090372,13.6134031 L46.2618568,12.7818022 L46.6776572,12.058212 Z M35.3430353,35.2768484 L34.9272349,35.0356516 L33.6964819,34.3201826 L34.8772901,31.1602618 L37.4967516,32.6736292 L35.3430353,35.2768484 Z M32.8482328,37.6798824 C32.4969952,37.4350311 32.3889845,36.9640072 32.598915,36.5904365 L33.0147154,35.8672524 L34.4614897,36.6988533 L34.0456893,37.4139164 C33.9291516,37.6161318 33.733433,37.7598752 33.5056361,37.8106322 C33.2778391,37.860983 33.0394848,37.8138806 32.8482328,37.6798824 Z M38.4448902,31.3100962 L35.5675838,29.6468945 L42.2203904,18.1206146 L45.0976969,19.7838163 L38.4448902,31.3100962 Z M45.9292977,18.345163 L43.0519913,16.6819614 L44.7151929,13.804655 L47.5924994,15.4678567 L45.9292977,18.345163 Z" id="path-1"></path>
        <filter x="-100.2%" y="-90.2%" width="300.4%" height="280.4%" filterUnits="objectBoundingBox" id="filter-2">
            <feOffset dx="0" dy="0" in="SourceAlpha" result="shadowOffsetOuter1"></feOffset>
            <feGaussianBlur stdDeviation="10" in="shadowOffsetOuter1" result="shadowBlurOuter1"></feGaussianBlur>
            <feColorMatrix values="0 0 0 0 1   0 0 0 0 0.00297256098   0 0 0 0 0.225212069  0 0 0 1 0" type="matrix" in="shadowBlurOuter1"></feColorMatrix>
        </filter>
        <path d="M13.1224824,37.264082 L10.1789891,40.1998603 L8.41589792,38.4367691 C8.09145988,38.1143614 7.56764875,38.1143614 7.24321081,38.4367691 C7.08566133,38.5931004 6.99714137,38.8054671 6.99714137,39.0271732 C6.99714137,39.2488793 7.08566133,39.4616521 7.24321081,39.6175773 L9.00630198,41.3806686 C9.31815229,41.6900825 9.73963742,41.863468 10.1789891,41.8630873 C10.620777,41.8654983 11.0459167,41.6921128 11.3597973,41.3806686 L14.2951695,38.4367691 C14.5777839,38.1066463 14.5586994,37.6149136 14.2517216,37.3079359 C13.9443379,37.0005522 13.4526052,36.9814676 13.1224824,37.264082 Z" id="path-3"></path>
        <filter x="-400.1%" y="-625.1%" width="900.2%" height="1350.3%" filterUnits="objectBoundingBox" id="filter-4">
            <feOffset dx="0" dy="0" in="SourceAlpha" result="shadowOffsetOuter1"></feOffset>
            <feGaussianBlur stdDeviation="10" in="shadowOffsetOuter1" result="shadowBlurOuter1"></feGaussianBlur>
            <feColorMatrix values="0 0 0 0 1   0 0 0 0 0.00297256098   0 0 0 0 0.225212069  0 0 0 1 0" type="matrix" in="shadowBlurOuter1"></feColorMatrix>
        </filter>
        <path d="M3.32640333,39.5010394 C3.32640333,43.4052592 6.49119667,46.5696465 10.3950104,46.5696465 C14.2988241,46.5696465 17.4636175,43.4052592 17.4636175,39.5010394 C17.4636175,39.0417912 17.091265,38.6694386 16.6320166,38.6694386 C16.1727683,38.6694386 15.8004158,39.0417912 15.8004158,39.5010394 C15.8004158,42.4863565 13.3803274,44.9064449 10.3950104,44.9064449 C7.40969335,44.9064449 4.98960499,42.4863565 4.98960499,39.5010394 C4.98960499,36.5157224 7.40969335,34.095634 10.3950104,34.095634 C11.5652611,34.0923856 12.7042457,34.4720471 13.6381725,35.1769588 C14.0056523,35.4526702 14.527027,35.3779561 14.8023324,35.0104762 C15.0780438,34.6429964 15.0037358,34.1220277 14.6362558,33.8463163 C12.4943152,32.2399623 9.62837838,31.9817113 7.23387152,33.1787617 C4.83895852,34.3762181 3.32640333,36.8239182 3.32640333,39.5010394 Z" id="path-5"></path>
        <filter x="-212.2%" y="-212.2%" width="524.4%" height="524.4%" filterUnits="objectBoundingBox" id="filter-6">
            <feOffset dx="0" dy="0" in="SourceAlpha" result="shadowOffsetOuter1"></feOffset>
            <feGaussianBlur stdDeviation="10" in="shadowOffsetOuter1" result="shadowBlurOuter1"></feGaussianBlur>
            <feColorMatrix values="0 0 0 0 1   0 0 0 0 0.00297256098   0 0 0 0 0.225212069  0 0 0 1 0" type="matrix" in="shadowBlurOuter1"></feColorMatrix>
        </filter>
        <path d="M29.9376299,6.6528066 C30.3968783,6.6528066 30.7692308,6.28086024 30.7692308,5.82120577 C30.7692308,5.36195754 30.3968783,4.98960494 29.9376299,4.98960494 L8.31600832,4.98960494 C7.85675998,4.98960494 7.48440748,5.36195754 7.48440748,5.82120577 L7.48440748,9.1476091 C7.48440748,9.60726357 7.85675998,9.97920993 8.31600832,9.97920993 L29.9376299,9.97920993 C30.3968783,9.97920993 30.7692308,9.60726357 30.7692308,9.1476091 C30.7692308,8.68836086 30.3968783,8.31600826 29.9376299,8.31600826 L9.14760915,8.31600826 L9.14760915,6.6528066 L29.9376299,6.6528066 Z" id="path-7"></path>
        <filter x="-128.8%" y="-601.2%" width="357.7%" height="1302.5%" filterUnits="objectBoundingBox" id="filter-8">
            <feOffset dx="0" dy="0" in="SourceAlpha" result="shadowOffsetOuter1"></feOffset>
            <feGaussianBlur stdDeviation="10" in="shadowOffsetOuter1" result="shadowBlurOuter1"></feGaussianBlur>
            <feColorMatrix values="0 0 0 0 1   0 0 0 0 0.00297256098   0 0 0 0 0.225212069  0 0 0 1 0" type="matrix" in="shadowBlurOuter1"></feColorMatrix>
        </filter>
        <path d="M10.8108108,11.6424116 C10.3515625,11.6424116 9.97920998,12.0147642 9.97920998,12.4740124 C9.97920998,12.9336669 10.3515625,13.3056133 10.8108108,13.3056133 L27.4428274,13.3056133 C27.9020758,13.3056133 28.2744283,12.9336669 28.2744283,12.4740124 C28.2744283,12.0147642 27.9020758,11.6424116 27.4428274,11.6424116 L10.8108108,11.6424116 Z" id="path-9"></path>
        <filter x="-164.0%" y="-1803.7%" width="428.0%" height="3707.5%" filterUnits="objectBoundingBox" id="filter-10">
            <feOffset dx="0" dy="0" in="SourceAlpha" result="shadowOffsetOuter1"></feOffset>
            <feGaussianBlur stdDeviation="10" in="shadowOffsetOuter1" result="shadowBlurOuter1"></feGaussianBlur>
            <feColorMatrix values="0 0 0 0 1   0 0 0 0 0.00297256098   0 0 0 0 0.225212069  0 0 0 1 0" type="matrix" in="shadowBlurOuter1"></feColorMatrix>
        </filter>
        <path d="M32.4324324,17.4636174 L14.1372141,17.4636174 C13.6779658,17.4636174 13.3056133,17.83597 13.3056133,18.2952182 C13.3056133,18.7548727 13.6779658,19.1268191 14.1372141,19.1268191 L32.4324324,19.1268191 C32.8916808,19.1268191 33.2640333,18.7548727 33.2640333,18.2952182 C33.2640333,17.83597 32.8916808,17.4636174 32.4324324,17.4636174 Z" id="path-11"></path>
        <filter x="-150.3%" y="-1803.7%" width="400.6%" height="3707.5%" filterUnits="objectBoundingBox" id="filter-12">
            <feOffset dx="0" dy="0" in="SourceAlpha" result="shadowOffsetOuter1"></feOffset>
            <feGaussianBlur stdDeviation="10" in="shadowOffsetOuter1" result="shadowBlurOuter1"></feGaussianBlur>
            <feColorMatrix values="0 0 0 0 1   0 0 0 0 0.00297256098   0 0 0 0 0.225212069  0 0 0 1 0" type="matrix" in="shadowBlurOuter1"></feColorMatrix>
        </filter>
        <path d="M24.1164241,23.2848232 C24.1164241,22.825575 23.7440716,22.4532224 23.2848233,22.4532224 L6.65280665,22.4532224 C6.19355832,22.4532224 5.82120582,22.825575 5.82120582,23.2848232 C5.82120582,23.7444777 6.19355832,24.1164241 6.65280665,24.1164241 L23.2848233,24.1164241 C23.7440716,24.1164241 24.1164241,23.7444777 24.1164241,23.2848232 Z" id="path-13"></path>
        <filter x="-164.0%" y="-1803.8%" width="428.0%" height="3707.5%" filterUnits="objectBoundingBox" id="filter-14">
            <feOffset dx="0" dy="0" in="SourceAlpha" result="shadowOffsetOuter1"></feOffset>
            <feGaussianBlur stdDeviation="10" in="shadowOffsetOuter1" result="shadowBlurOuter1"></feGaussianBlur>
            <feColorMatrix values="0 0 0 0 1   0 0 0 0 0.00297256098   0 0 0 0 0.225212069  0 0 0 1 0" type="matrix" in="shadowBlurOuter1"></feColorMatrix>
        </filter>
        <path d="M32.4324324,22.4532224 L26.6112266,22.4532224 C26.1519783,22.4532224 25.7796258,22.825575 25.7796258,23.2848232 C25.7796258,23.7444777 26.1519783,24.1164241 26.6112266,24.1164241 L32.4324324,24.1164241 C32.8916808,24.1164241 33.2640333,23.7444777 33.2640333,23.2848232 C33.2640333,22.825575 32.8916808,22.4532224 32.4324324,22.4532224 Z" id="path-15"></path>
        <filter x="-400.8%" y="-1803.8%" width="901.7%" height="3707.5%" filterUnits="objectBoundingBox" id="filter-16">
            <feOffset dx="0" dy="0" in="SourceAlpha" result="shadowOffsetOuter1"></feOffset>
            <feGaussianBlur stdDeviation="10" in="shadowOffsetOuter1" result="shadowBlurOuter1"></feGaussianBlur>
            <feColorMatrix values="0 0 0 0 1   0 0 0 0 0.00297256098   0 0 0 0 0.225212069  0 0 0 1 0" type="matrix" in="shadowBlurOuter1"></feColorMatrix>
        </filter>
        <path d="M14.968815,28.2744282 C15.4280633,28.2744282 15.8004158,27.9024819 15.8004158,27.4428274 C15.8004158,26.9835792 15.4280633,26.6112266 14.968815,26.6112266 L6.65280665,26.6112266 C6.19355832,26.6112266 5.82120582,26.9835792 5.82120582,27.4428274 C5.82120582,27.9024819 6.19355832,28.2744282 6.65280665,28.2744282 L14.968815,28.2744282 Z" id="path-17"></path>
        <filter x="-300.6%" y="-1803.7%" width="701.2%" height="3707.5%" filterUnits="objectBoundingBox" id="filter-18">
            <feOffset dx="0" dy="0" in="SourceAlpha" result="shadowOffsetOuter1"></feOffset>
            <feGaussianBlur stdDeviation="10" in="shadowOffsetOuter1" result="shadowBlurOuter1"></feGaussianBlur>
            <feColorMatrix values="0 0 0 0 1   0 0 0 0 0.00297256098   0 0 0 0 0.225212069  0 0 0 1 0" type="matrix" in="shadowBlurOuter1"></feColorMatrix>
        </filter>
        <path d="M18.2952183,28.2744282 L24.1164241,28.2744282 C24.5756725,28.2744282 24.9480249,27.9024819 24.9480249,27.4428274 C24.9480249,26.9835792 24.5756725,26.6112266 24.1164241,26.6112266 L18.2952183,26.6112266 C17.83597,26.6112266 17.4636175,26.9835792 17.4636175,27.4428274 C17.4636175,27.9024819 17.83597,28.2744282 18.2952183,28.2744282 Z" id="path-19"></path>
        <filter x="-400.8%" y="-1803.7%" width="901.7%" height="3707.5%" filterUnits="objectBoundingBox" id="filter-20">
            <feOffset dx="0" dy="0" in="SourceAlpha" result="shadowOffsetOuter1"></feOffset>
            <feGaussianBlur stdDeviation="10" in="shadowOffsetOuter1" result="shadowBlurOuter1"></feGaussianBlur>
            <feColorMatrix values="0 0 0 0 1   0 0 0 0 0.00297256098   0 0 0 0 0.225212069  0 0 0 1 0" type="matrix" in="shadowBlurOuter1"></feColorMatrix>
        </filter>
        <path d="M37.4220374,38.2536382 C36.9627891,38.2536382 36.5904366,38.6259908 36.5904366,39.085239 L36.5904366,47.4012473 C36.5904366,47.8609018 36.2180841,48.2328482 35.7588358,48.2328482 L2.49480249,48.2328482 C2.03555416,48.2328482 1.66320166,47.8609018 1.66320166,47.4012473 L1.66320166,2.49480244 C1.66320166,2.03555421 2.03555416,1.66320161 2.49480249,1.66320161 L35.7588358,1.66320161 C36.2180841,1.66320161 36.5904366,2.03555421 36.5904366,2.49480244 L36.5904366,18.1124935 C36.5904366,18.5717418 36.9627891,18.9440943 37.4220374,18.9440943 C37.8812858,18.9440943 38.2536383,18.5717418 38.2536383,18.1124935 L38.2536383,2.49480244 C38.2536383,1.11705754 37.1365807,-1.91846539e-13 35.7588358,-1.91846539e-13 L2.49480249,-1.91846539e-13 C1.11705759,-1.91846539e-13 -2.84217094e-14,1.11705754 -2.84217094e-14,2.49480244 L-2.84217094e-14,47.4012473 C-2.84217094e-14,48.7793984 1.11705759,49.8960498 2.49480249,49.8960498 L35.7588358,49.8960498 C37.1365807,49.8960498 38.2536383,48.7793984 38.2536383,47.4012473 L38.2536383,39.085239 C38.2536383,38.6259908 37.8812858,38.2536382 37.4220374,38.2536382 Z" id="path-21"></path>
        <filter x="-78.4%" y="-60.1%" width="256.8%" height="220.3%" filterUnits="objectBoundingBox" id="filter-22">
            <feOffset dx="0" dy="0" in="SourceAlpha" result="shadowOffsetOuter1"></feOffset>
            <feGaussianBlur stdDeviation="10" in="shadowOffsetOuter1" result="shadowBlurOuter1"></feGaussianBlur>
            <feColorMatrix values="0 0 0 0 1   0 0 0 0 0.00297256098   0 0 0 0 0.225212069  0 0 0 1 0" type="matrix" in="shadowBlurOuter1"></feColorMatrix>
        </filter>
    </defs>
    <g id="Товары" stroke="none" stroke-width="1" fill="none" fill-rule="evenodd">
        <g id="Main" transform="translate(-320.000000, -896.000000)" fill-rule="nonzero">
            <g id="contract" transform="translate(340.000000, 916.000000)">
                <g id="Shape">
                    <use fill="black" fill-opacity="1" filter="url(#filter-2)" xlink:href="#path-1"></use>
                    <use fill="#FF0139" xlink:href="#path-1"></use>
                </g>
                <g id="Path">
                    <use fill="black" fill-opacity="1" filter="url(#filter-4)" xlink:href="#path-3"></use>
                    <use fill="#FF0139" xlink:href="#path-3"></use>
                </g>
                <g id="Path">
                    <use fill="black" fill-opacity="1" filter="url(#filter-6)" xlink:href="#path-5"></use>
                    <use fill="#FF0139" xlink:href="#path-5"></use>
                </g>
                <g id="Path">
                    <use fill="black" fill-opacity="1" filter="url(#filter-8)" xlink:href="#path-7"></use>
                    <use fill="#FF0139" xlink:href="#path-7"></use>
                </g>
                <g id="Path">
                    <use fill="black" fill-opacity="1" filter="url(#filter-10)" xlink:href="#path-9"></use>
                    <use fill="#FF0139" xlink:href="#path-9"></use>
                </g>
                <g id="Path">
                    <use fill="black" fill-opacity="1" filter="url(#filter-12)" xlink:href="#path-11"></use>
                    <use fill="#FF0139" xlink:href="#path-11"></use>
                </g>
                <g id="Path">
                    <use fill="black" fill-opacity="1" filter="url(#filter-14)" xlink:href="#path-13"></use>
                    <use fill="#FF0139" xlink:href="#path-13"></use>
                </g>
                <g id="Path">
                    <use fill="black" fill-opacity="1" filter="url(#filter-16)" xlink:href="#path-15"></use>
                    <use fill="#FF0139" xlink:href="#path-15"></use>
                </g>
                <g id="Path">
                    <use fill="black" fill-opacity="1" filter="url(#filter-18)" xlink:href="#path-17"></use>
                    <use fill="#FF0139" xlink:href="#path-17"></use>
                </g>
                <g id="Path">
                    <use fill="black" fill-opacity="1" filter="url(#filter-20)" xlink:href="#path-19"></use>
                    <use fill="#FF0139" xlink:href="#path-19"></use>
                </g>
                <g id="Path">
                    <use fill="black" fill-opacity="1" filter="url(#filter-22)" xlink:href="#path-21"></use>
                    <use fill="#FF0139" xlink:href="#path-21"></use>
                </g>
            </g>
        </g>
    </g>
</svg>