<?xml version="1.0" encoding="UTF-8"?>
<svg width="30px" height="20px" viewBox="0 0 30 20" version="1.1" xmlns="http://www.w3.org/2000/svg" xmlns:xlink="http://www.w3.org/1999/xlink">
    <!-- Generator: Sketch 64 (93537) - https://sketch.com -->
    <title>credit-card</title>
    <desc>Created with Sketch.</desc>
    <g id="Товары" stroke="none" stroke-width="1" fill="none" fill-rule="evenodd">
        <g id="credit-card" fill="#050218" fill-rule="nonzero">
            <path d="M2.5,20 L27.5,20 C28.8800693,19.99845 29.99845,18.8800693 30,17.5 L30,2.5 C29.99845,1.11993065 28.8800693,0.00154996392 27.5,0 L2.5,0 C1.11993065,0.00154996392 0.00154996392,1.11993065 0,2.5 L0,17.5 C0.00154996392,18.8800693 1.11993065,19.99845 2.5,20 Z M1,2.5 C1.00096435,1.67197265 1.67197265,1.00096435 2.5,1 L27.5,1 C28.3280274,1.00096435 28.9990357,1.67197265 29,2.5 L29,17.5 C28.9990357,18.3280274 28.3280274,18.9990357 27.5,19 L2.5,19 C1.67197265,18.9990357 1.00096435,18.3280274 1,17.5 L1,2.5 Z" id="Shape"></path>
            <path d="M4.5,8 L6.5,8 C7.32802735,7.99903565 7.99903565,7.32802735 8,6.5 L8,4.5 C7.99903565,3.67197265 7.32802735,3.00096435 6.5,3 L4.5,3 C3.67197265,3.00096435 3.00096435,3.67197265 3,4.5 L3,6.5 C3.00096435,7.32802735 3.67197265,7.99903565 4.5,8 Z M4.5,4 L6.5,4 C6.77601387,4.00030999 6.99969001,4.22398613 7,4.5 L7,5 L6.5,5 C6.22385763,5 6,5.22385763 6,5.5 C6,5.77614237 6.22385763,6 6.5,6 L7,6 L7,6.5 C6.99969001,6.77601387 6.77601387,6.99969001 6.5,7 L4.5,7 C4.22398613,6.99969001 4.00030999,6.77601387 4,6.5 L4,6 L4.5,6 C4.77614237,6 5,5.77614237 5,5.5 C5,5.22385763 4.77614237,5 4.5,5 L4,5 L4,4.5 C4.00030999,4.22398613 4.22398613,4.00030999 4.5,4 L4.5,4 Z" id="Shape"></path>
            <path d="M3.5,15 L11,15 C11.2761424,15 11.5,14.7761424 11.5,14.5 C11.5,14.2238576 11.2761424,14 11,14 L3.5,14 C3.22385763,14 3,14.2238576 3,14.5 C3,14.7761424 3.22385763,15 3.5,15 Z" id="Path"></path>
            <path d="M3.5,17 L13.5,17.000375 L13.5,17.000375 C13.7761424,17.000375 14,16.7765174 14,16.500375 C14,16.2242326 13.7761424,16.000375 13.5,16.000375 L3.5,16 L3.5,16 C3.22385763,16 3,16.2238576 3,16.5 C3,16.7761424 3.22385763,17 3.5,17 Z" id="Path"></path>
            <path d="M23,18 C23.4388296,18.0003481 23.869916,17.8844141 24.249375,17.664 C25.3000135,18.271778 26.6354117,18.0370916 27.4158709,17.1075117 C28.19633,16.1779318 28.19633,14.8220682 27.4158709,13.8924883 C26.6354117,12.9629084 25.3000135,12.728222 24.249375,13.336 C23.3393315,12.8104595 22.1977534,12.9102807 21.3927313,13.585789 C20.5877092,14.2612972 20.2911949,15.3682047 20.6507447,16.3556741 C21.0102945,17.3431436 21.949109,18.0002526 23,18 L23,18 Z M27.0000003,15.5 C27.0002209,15.9779659 26.7725406,16.4273963 26.3870394,16.7099564 C26.0015382,16.9925165 25.5044161,17.0743432 25.0486875,16.93025 C25.650431,16.0717113 25.650431,14.9283512 25.0486875,14.0698125 C25.50441,13.9256356 26.0015682,14.0074193 26.387091,14.2899829 C26.7726138,14.5725465 27.0002826,15.0220147 27.0000003,15.5 L27.0000003,15.5 Z M23,14 C23.8284271,14 24.5,14.6715729 24.5,15.5 C24.5,16.3284271 23.8284271,17 23,17 C22.1715729,17 21.5,16.3284271 21.5,15.5 C21.5009643,14.6719726 22.1719726,14.0009643 23,14 Z" id="Shape"></path>
            <path d="M25.776375,7.9471875 C25.8949571,8.00661223 26.0323036,8.01643924 26.1581379,7.97450226 C26.2839723,7.93256528 26.3879634,7.8423074 26.4471875,7.723625 C26.4698125,7.6784375 27,6.605375 27,5.5 C27,4.394625 26.4698125,3.3215625 26.4471875,3.276375 C26.3226594,3.03160229 26.0240193,2.93308199 25.7782878,3.0557074 C25.5325564,3.17833282 25.4317222,3.47619962 25.5524375,3.722875 C25.5569375,3.7319375 26,4.635 26,5.5 C26,6.365 25.5569375,7.2680625 25.5528125,7.276375 C25.4293169,7.52335048 25.529407,7.82367687 25.776375,7.9471875 Z" id="Path"></path>
            <path d="M21.6464375,6.8535625 C21.7402064,6.94733626 21.8673873,7.00001822 22,7.00001822 C22.1326127,7.00001822 22.2597936,6.94733626 22.3535625,6.8535625 C22.41975,6.7875 23,6.1875 23,5.5 C23,4.8125 22.41975,4.2125 22.3535625,4.1464375 C22.158675,3.95079064 21.8420844,3.95017504 21.6464375,4.14506252 C21.4507907,4.33994999 21.450175,4.65654062 21.6450625,4.8521875 C21.7881875,4.997625 22,5.304125 22,5.5 C22,5.695875 21.7881875,6.002375 21.6464375,6.1464375 C21.5526637,6.24020643 21.4999818,6.36738729 21.4999818,6.5 C21.4999818,6.63261271 21.5526637,6.75979357 21.6464375,6.8535625 Z" id="Path"></path>
            <path d="M3.5,11 L6.5,11 C6.77614237,11 7,10.7761424 7,10.5 C7,10.2238576 6.77614237,10 6.5,10 L3.5,10 C3.22385763,10 3,10.2238576 3,10.5 C3,10.7761424 3.22385763,11 3.5,11 Z" id="Path"></path>
            <path d="M9.5,11 L12.5,11 C12.7761424,11 13,10.7761424 13,10.5 C13,10.2238576 12.7761424,10 12.5,10 L9.5,10 C9.22385763,10 9,10.2238576 9,10.5 C9,10.7761424 9.22385763,11 9.5,11 Z" id="Path"></path>
            <path d="M15.5,11 L18.5,11 C18.7761424,11 19,10.7761424 19,10.5 C19,10.2238576 18.7761424,10 18.5,10 L15.5,10 C15.2238576,10 15,10.2238576 15,10.5 C15,10.7761424 15.2238576,11 15.5,11 Z" id="Path"></path>
            <path d="M21.5,11 L24.5,11 C24.7761424,11 25,10.7761424 25,10.5 C25,10.2238576 24.7761424,10 24.5,10 L21.5,10 C21.2238576,10 21,10.2238576 21,10.5 C21,10.7761424 21.2238576,11 21.5,11 Z" id="Path"></path>
            <path d="M24.3535625,3.6464375 C24.1582953,3.45117034 23.8417047,3.45117035 23.6464375,3.64643752 C23.4511704,3.84170469 23.4511703,4.15829532 23.6464375,4.3535625 C23.6499375,4.357125 24,4.7410625 24,5.5 C24,6.2589375 23.6555,6.6365 23.640875,6.6521875 L23.6464375,6.6464375 L23.6464375,6.6464375 C23.4511703,6.84170468 23.4511704,7.15829531 23.6464375,7.35356248 C23.8417047,7.54882965 24.1582953,7.54882966 24.3535625,7.3535625 L24.3535625,7.3535625 C24.41975,7.2875 25,6.6731875 25,5.5 C25,4.3268125 24.41975,3.7125 24.3535625,3.6464375 Z" id="Path"></path>
        </g>
    </g>
</svg>