<?xml version="1.0" encoding="UTF-8"?>
<svg width="45px" height="60px" viewBox="0 0 45 60" version="1.1" xmlns="http://www.w3.org/2000/svg" xmlns:xlink="http://www.w3.org/1999/xlink">
    <!-- Generator: Sketch 64 (93537) - https://sketch.com -->
    <title>document</title>
    <desc>Created with Sketch.</desc>
    <g id="Документооборот" stroke="none" stroke-width="1" fill="none" fill-rule="evenodd">
        <g id="Фильтры" transform="translate(-694.000000, -339.000000)" fill="#FF0139" fill-rule="nonzero">
            <g id="Group-5" transform="translate(598.000000, 339.000000)">
                <g id="Group-4" transform="translate(26.000000, 0.000000)">
                    <g id="document" transform="translate(70.000000, -0.000000)">
                        <path d="M25.0434783,24.8628763 C24.2608696,24.4414716 23.2976589,24.2006689 22.2140468,24.2006689 C21.4314381,24.2006689 20.7090301,24.3210702 20.0468227,24.5618729 C19.3846154,24.8026756 18.8428094,25.1638796 18.4214047,25.6454849 C18,26.1270903 17.638796,26.729097 17.3979933,27.3913043 C17.1571906,28.1137124 17.0367893,28.8361204 17.0367893,29.6789298 C17.0367893,30.4615385 17.1571906,31.2441472 17.3979933,31.9063545 C17.638796,32.5685619 17.9397993,33.1705686 18.4214047,33.6521739 C18.8428094,34.1337793 19.3846154,34.4949833 20.0468227,34.7959866 C20.7090301,35.0367893 21.4314381,35.2173913 22.2742475,35.2173913 C23.1170569,35.2173913 23.8394649,35.09699 24.5016722,34.8561873 C25.1638796,34.6153846 25.7056856,34.1939799 26.1270903,33.7123746 C26.548495,33.2307692 26.909699,32.6287625 27.1505017,31.9665552 C27.3913043,31.3043478 27.5117057,30.5819398 27.5117057,29.7391304 C27.5117057,28.6555184 27.3311037,27.6923077 26.909699,26.8494983 C26.4280936,25.9464883 25.826087,25.2842809 25.0434783,24.8628763 Z M24.8628763,31.7859532 C24.5618729,32.3879599 24.2006689,32.8093645 23.7792642,33.0501672 C23.2976589,33.3511706 22.8160535,33.4715719 22.2742475,33.4715719 C21.8528428,33.4715719 21.4314381,33.4113712 21.0702341,33.2307692 C20.7090301,33.0501672 20.4080268,32.8093645 20.1070234,32.5083612 C19.8060201,32.2073579 19.6254181,31.7859532 19.4448161,31.3043478 C19.3244147,30.8227425 19.2040134,30.2809365 19.2040134,29.6789298 C19.2040134,29.0769231 19.264214,28.5351171 19.4448161,28.0535117 C19.6254181,27.5719064 19.8060201,27.1505017 20.0468227,26.8494983 C20.2876254,26.548495 20.6488294,26.3076923 21.0100334,26.1270903 C21.3712375,25.9464883 21.7926421,25.8862876 22.2140468,25.8862876 C22.8160535,25.8862876 23.3578595,26.006689 23.8394649,26.3076923 C24.3210702,26.6086957 24.6822742,27.0301003 24.9230769,27.5719064 C25.1638796,28.1137124 25.2842809,28.8361204 25.2842809,29.6187291 C25.2842809,30.4615385 25.1036789,31.1839465 24.8628763,31.7859532 Z" id="Shape"></path>
                        <path d="M44.7892977,11.8595318 L44.729097,11.7993311 L44.729097,11.7391304 L33.2909699,0.301003344 L33.2307692,0.240802676 C33.2307692,0.240802676 33.1705686,0.240802676 33.1705686,0.180602007 C33.1705686,0.180602007 33.1103679,0.180602007 33.1103679,0.120401338 C32.9297659,0 32.7491639,0 32.5083612,0 L4.15384615,0 C3.01003344,0 1.98662207,0.481605351 1.26421405,1.20401338 C0.54180602,1.9264214 0.0602006689,3.01003344 0.0602006689,4.09364548 L0.0602006689,55.3244147 C0.0602006689,56.4080268 0.481605351,57.4314381 1.20401338,58.1538462 L1.26421405,58.2140468 C1.98662207,58.9364548 3.07023411,59.4180602 4.15384615,59.4180602 L40.8160535,59.4180602 C41.9598662,59.4180602 42.9832776,58.9364548 43.7056856,58.2140468 C44.4280936,57.4916388 44.909699,56.4080268 44.909699,55.3244147 L44.909699,12.4615385 C44.909699,12.2207358 44.8494983,12.0401338 44.7892977,11.8595318 Z M33.6521739,4.33444816 L40.4548495,11.1371237 L35.458194,11.1371237 C34.9765886,11.1371237 34.4949833,10.9565217 34.1939799,10.5953177 C33.8929766,10.2943144 33.6521739,9.81270903 33.6521739,9.33110368 L33.6521739,4.33444816 Z M42.3210702,55.3244147 C42.3210702,55.7458194 42.1404682,56.1070234 41.8394649,56.4080268 C41.5384615,56.7090301 41.1772575,56.8896321 40.7558528,56.8896321 L4.15384615,56.8896321 C3.73244147,56.8896321 3.37123746,56.7090301 3.07023411,56.4080268 L3.01003344,56.3478261 C2.76923077,56.0468227 2.58862876,55.6856187 2.58862876,55.3244147 L2.58862876,4.03344482 C2.58862876,3.61204013 2.76923077,3.25083612 3.07023411,2.94983278 C3.37123746,2.64882943 3.73244147,2.46822742 4.15384615,2.46822742 L31.1237458,2.46822742 L31.1237458,9.27090301 C31.1237458,10.4749164 31.6053512,11.5585284 32.4481605,12.4013378 C33.2307692,13.1839465 34.3745819,13.6655518 35.5785953,13.6655518 L42.3210702,13.6655518 L42.3210702,55.3244147 Z" id="Shape"></path>
                        <path d="M31.9063545,24.5618729 C31.3043478,24.8026756 30.7625418,25.1638796 30.2809365,25.6454849 C29.7993311,26.1270903 29.4381271,26.729097 29.1973244,27.3913043 C28.9565217,28.0535117 28.8361204,28.8361204 28.8361204,29.6789298 C28.8361204,30.2207358 28.8963211,30.7023411 28.9565217,31.1839465 C29.0769231,31.6655518 29.1973244,32.0869565 29.3779264,32.5083612 C29.5585284,32.9297659 29.7993311,33.2909699 30.1003344,33.6521739 C30.4013378,34.0133779 30.7625418,34.3143813 31.1237458,34.5551839 C31.4849498,34.7959866 31.9063545,34.916388 32.3879599,35.0367893 C32.8695652,35.1571906 33.3511706,35.2173913 33.8929766,35.2173913 C34.6153846,35.2173913 35.277592,35.09699 35.819398,34.8561873 C36.361204,34.6153846 36.8428094,34.3143813 37.2040134,33.9531773 C37.5652174,33.5919732 37.8060201,33.1705686 37.9866221,32.8093645 C38.1672241,32.3879599 38.2274247,32.0267559 38.2274247,31.7257525 C38.2274247,31.4849498 38.1070234,31.2441472 37.9264214,31.0635452 C37.7458194,30.8829431 37.5050167,30.8227425 37.264214,30.8227425 C36.9632107,30.8227425 36.722408,30.8829431 36.6020067,31.0635452 C36.4816054,31.2441472 36.361204,31.4849498 36.2408027,31.7257525 C36,32.3277592 35.6989967,32.7491639 35.277592,33.0501672 C34.8561873,33.3511706 34.3143813,33.5317726 33.7123746,33.5317726 C33.1705686,33.5317726 32.6287625,33.4113712 32.2073579,33.1103679 C31.7859532,32.8093645 31.4247492,32.4481605 31.2441472,31.9063545 C31.0033445,31.3645485 30.8829431,30.7023411 30.8829431,29.8595318 C30.8829431,28.6555184 31.1237458,27.6923077 31.6655518,27.0301003 C32.2073579,26.367893 32.8695652,26.006689 33.7725753,26.006689 C34.3143813,26.006689 34.7959866,26.1270903 35.1571906,26.367893 C35.5183946,26.6086957 35.8795987,27.0301003 36.1204013,27.5719064 C36.3010033,27.8729097 36.4214047,28.1137124 36.6020067,28.2341137 C36.722408,28.3545151 36.9632107,28.4147157 37.2040134,28.4147157 C37.4448161,28.4147157 37.6856187,28.2943144 37.8060201,28.1137124 C37.9866221,27.9331104 38.0468227,27.6923077 38.0468227,27.451505 C38.0468227,27.0301003 37.8662207,26.548495 37.5050167,26.006689 C37.1438127,25.5250836 36.6622074,25.1036789 35.9397993,24.7424749 C35.277592,24.3812709 34.4949833,24.2006689 33.6521739,24.2006689 C33.2307692,24.2006689 32.5685619,24.3210702 31.9063545,24.5618729 Z" id="Path"></path>
                        <path d="M14.0267559,25.3444816 C13.6053512,24.9832776 13.1237458,24.7424749 12.5819398,24.5618729 C12.0401338,24.4414716 11.4381271,24.3812709 10.7157191,24.3812709 L7.94648829,24.3812709 C7.46488294,24.3812709 7.1638796,24.5016722 6.92307692,24.6822742 C6.74247492,24.8628763 6.62207358,25.2240803 6.62207358,25.7056856 L6.62207358,33.4715719 C6.62207358,33.8327759 6.62207358,34.0735786 6.74247492,34.3143813 C6.80267559,34.5551839 6.92307692,34.6755853 7.10367893,34.7959866 C7.28428094,34.916388 7.58528428,34.9765886 8.00668896,34.9765886 L10.7759197,34.9765886 C11.2575251,34.9765886 11.6789298,34.916388 12.1003344,34.8561873 C12.4615385,34.7959866 12.8227425,34.6755853 13.1839465,34.5551839 C13.5451505,34.3745819 13.8461538,34.1939799 14.0869565,33.9531773 C14.4481605,33.5919732 14.7491639,33.2307692 14.9899666,32.8093645 C15.2307692,32.3879599 15.4113712,31.9063545 15.5317726,31.3645485 C15.6521739,30.8227425 15.7123746,30.2809365 15.7123746,29.6187291 C15.6521739,27.7525084 15.1103679,26.3076923 14.0267559,25.3444816 Z M12.4013378,32.7491639 C12.2207358,32.8695652 12.0401338,32.9899666 11.8595318,33.0501672 C11.6187291,33.1103679 11.4381271,33.1705686 11.2575251,33.1705686 C11.0769231,33.1705686 10.7759197,33.1705686 10.4147157,33.1705686 L8.78929766,33.1705686 L8.78929766,26.0668896 L10.2341137,26.0668896 C10.8963211,26.0668896 11.4381271,26.1270903 11.9197324,26.3076923 C12.4013378,26.4280936 12.7625418,26.7892977 13.0635452,27.3311037 C13.3645485,27.8729097 13.5451505,28.6555184 13.5451505,29.6789298 C13.4849498,31.1237458 13.1237458,32.1471572 12.4013378,32.7491639 Z" id="Shape"></path>
                    </g>
                </g>
            </g>
        </g>
    </g>
</svg>