<?xml version="1.0" encoding="UTF-8"?>
<svg width="512px" height="481px" viewBox="0 0 512 481" version="1.1" xmlns="http://www.w3.org/2000/svg" xmlns:xlink="http://www.w3.org/1999/xlink">
    <!-- Generator: Sketch 64 (93537) - https://sketch.com -->
    <title>download (1)</title>
    <desc>Created with Sketch.</desc>
    <g id="Документооборот" stroke="none" stroke-width="1" fill="none" fill-rule="evenodd">
        <g id="Фильтры" transform="translate(-360.000000, -77.000000)" fill="#FF0139" fill-rule="nonzero">
            <g id="download-(1)" transform="translate(360.000000, 77.000000)">
                <path d="M413.492188,128.910156 C396.199219,42.144531 311.84375,-14.171875 225.078125,3.121094 C161.617188,15.769531 111.996094,65.359375 99.308594,128.8125 C37.789062,135.902344 -6.339844,191.519531 0.746094,253.042969 C7.269531,309.664062 55.226562,352.382812 112.222656,352.343777 L192.316406,352.343777 C201.164062,352.343777 208.335938,345.171875 208.335938,336.324219 C208.335938,327.476562 201.164062,320.304688 192.316406,320.304688 L112.222656,320.304688 C67.984375,320.042969 32.339844,283.972656 32.597656,239.738281 C32.859375,195.5 68.929688,159.851562 113.167969,160.113281 C121.332031,160.113281 128.191406,153.972656 129.089844,145.855469 C137.222656,75.550781 200.8125,25.148438 271.121094,33.28125 C330.230469,40.117188 376.859375,86.746094 383.695312,145.855469 C385.039062,154.117188 392.195312,160.167969 400.5625,160.113281 C444.800781,160.113281 480.660156,195.972656 480.660156,240.210938 C480.660156,284.445312 444.800781,320.304688 400.5625,320.304688 L320.46875,320.304688 C311.621094,320.304688 304.449219,327.476562 304.449219,336.324219 C304.449219,345.171875 311.621094,352.343777 320.46875,352.343777 L400.566406,352.343777 C462.492188,351.957031 512.382812,301.441406 512.002188,239.515625 C511.648438,183.121094 469.46875,135.761719 413.492188,128.910156 L413.492188,128.910156 Z" id="Path"></path>
                <path d="M313.019531,385.183594 L272.410156,425.804688 L272.410156,224.191406 C272.410156,215.34375 265.238281,208.171875 256.394531,208.171875 C247.546875,208.171875 240.375,215.34375 240.375,224.191406 L240.375,425.804688 L199.765625,385.183594 C193.621094,378.816406 183.476562,378.640625 177.113281,384.789062 C170.75,390.933594 170.574219,401.074219 176.71875,407.4375 C176.851562,407.574219 176.980469,407.703125 177.113281,407.832031 L245.050781,475.785156 C246.535156,477.265625 248.292969,478.441406 250.226562,479.246094 C254.167969,480.914062 258.617188,480.914062 262.5625,479.246094 C264.496094,478.441406 266.253906,477.265625 267.734375,475.785156 L335.671875,407.832031 C342.035156,401.6875 342.210938,391.546875 336.066406,385.183594 C329.917969,378.820312 319.777344,378.644531 313.414062,384.789062 C313.28125,384.917969 313.148438,385.046875 313.019531,385.183594 Z" id="Path"></path>
            </g>
        </g>
    </g>
</svg>