<?xml version="1.0" encoding="UTF-8"?>
<svg width="40px" height="40px" viewBox="0 0 40 40" version="1.1" xmlns="http://www.w3.org/2000/svg" xmlns:xlink="http://www.w3.org/1999/xlink">
    <!-- Generator: Sketch 64 (93537) - https://sketch.com -->
    <title>download</title>
    <desc>Created with Sketch.</desc>
    <g id="Документооборот" stroke="none" stroke-width="1" fill="none" fill-rule="evenodd">
        <g id="Фильтры" transform="translate(-624.000000, -349.000000)" fill="#FF0139" fill-rule="nonzero">
            <g id="Group-5" transform="translate(598.000000, 339.000000)">
                <g id="Group-4" transform="translate(26.000000, 0.000000)">
                    <g id="download" transform="translate(0.000000, 10.000000)">
                        <path d="M20,40 C8.97155766,40 0,31.0284423 0,20 C0,8.97155766 8.97155766,0 20,0 C31.0284423,0 40,8.97155766 40,20 C40,31.0284423 31.0284423,40 20,40 Z M20,2.5 C10.3500366,2.5 2.5,10.3500366 2.5,20 C2.5,29.6499634 10.3500366,37.5 20,37.5 C29.6499634,37.5 37.5,29.6499634 37.5,20 C37.5,10.3500366 29.6499634,2.5 20,2.5 Z" id="Shape"></path>
                        <path d="M20,31.6665649 C19.3099976,31.6665649 18.75,31.1065673 18.75,30.4165649 L18.75,9.58343508 C18.75,8.89343266 19.3099976,8.33343508 20,8.33343508 C20.6900024,8.33343508 21.25,8.89343266 21.25,9.58343508 L21.25,30.4165649 C21.25,31.1065673 20.6900024,31.6665649 20,31.6665649 Z" id="Path"></path>
                        <path d="M20,31.6665649 C19.6798706,31.6665649 19.3600464,31.545105 19.1165161,31.3000488 L12.4499512,24.6334839 C11.9616699,24.1448975 11.9616699,23.3532715 12.4499512,22.8649902 C12.9382324,22.376709 13.7298584,22.376709 14.2184448,22.8649902 L20.0015259,28.6483765 L25.7849121,22.8649902 C26.2731934,22.376709 27.0651245,22.376709 27.5534058,22.8649902 C28.041687,23.3532715 28.041687,24.1448975 27.5534058,24.6334839 L20.8865356,31.3000488 C20.6399536,31.545105 20.3201294,31.6665649 20,31.6665649 Z" id="Path"></path>
                    </g>
                </g>
            </g>
        </g>
    </g>
</svg>