<?xml version="1.0" encoding="UTF-8"?>
<svg width="53px" height="50px" viewBox="0 0 53 50" version="1.1" xmlns="http://www.w3.org/2000/svg" xmlns:xlink="http://www.w3.org/1999/xlink">
    <!-- Generator: Sketch 64 (93537) - https://sketch.com -->
    <title>adjust</title>
    <desc>Created with Sketch.</desc>
    <g id="Товары" stroke="none" stroke-width="1" fill="none" fill-rule="evenodd">
        <g id="Main" transform="translate(-2175.000000, -249.000000)" fill="#000000" fill-rule="nonzero">
            <g id="Меню-фильтров" transform="translate(2041.000000, 213.000000)">
                <g id="Название-раздела" transform="translate(134.000000, 36.000000)">
                    <g id="adjust">
                        <path d="M49.8645325,40.1761179 L44.0910569,40.1761179 C43.1523374,37.0520325 40.2818089,34.7560976 36.8564024,34.7560976 C33.4309959,34.7560976 30.5626016,37.0520325 29.621748,40.1761179 L2.1679878,40.1761179 C0.971239837,40.1761179 0,41.1474593 0,42.3442073 C0,43.5409553 0.971239837,44.5121951 2.1679878,44.5121951 L29.6216463,44.5121951 C30.5603659,47.6362805 33.4308943,49.9322154 36.8563008,49.9322154 C40.2817073,49.9322154 43.1501016,47.6362805 44.0909553,44.5121951 L49.8644309,44.5121951 C51.063313,44.5121951 52.0324187,43.5409553 52.0324187,42.3442073 C52.0324187,41.1474593 51.0634146,40.1761179 49.8645325,40.1761179 Z M36.8564024,45.5962398 C35.0634146,45.5962398 33.6043699,44.1371951 33.6043699,42.3442073 C33.6043699,40.5512195 35.0634146,39.0921748 36.8564024,39.0921748 C38.6493902,39.0921748 40.108435,40.5512195 40.108435,42.3442073 C40.108435,44.1371951 38.6492886,45.5962398 36.8564024,45.5962398 Z" id="Shape"></path>
                        <path d="M49.8645325,5.48780488 L44.0910569,5.48780488 C43.1501016,2.36371951 40.2818089,0.0677845528 36.8564024,0.0677845528 C33.4309959,0.0677845528 30.5626016,2.36371951 29.6216463,5.48780488 L2.1679878,5.48780488 C0.971239837,5.48780488 0,6.45904472 0,7.65579268 C0,8.85254065 0.971239837,9.82378049 2.1679878,9.82378049 L29.6216463,9.82378049 C30.5626016,12.9479675 33.4308943,15.2439024 36.8564024,15.2439024 C40.2819106,15.2439024 43.1502033,12.9479675 44.0910569,9.82388211 L49.8645325,9.82388211 C51.0634146,9.82388211 52.0325203,8.85264228 52.0325203,7.65589431 C52.0325203,6.45914634 51.0634146,5.48780488 49.8645325,5.48780488 Z M36.8564024,10.9078252 C35.0634146,10.9078252 33.6043699,9.44878049 33.6043699,7.65579268 C33.6043699,5.86280488 35.0634146,4.40376016 36.8564024,4.40376016 C38.6493902,4.40376016 40.108435,5.86280488 40.108435,7.65579268 C40.108435,9.44878049 38.6492886,10.9078252 36.8564024,10.9078252 Z" id="Shape"></path>
                        <path d="M49.8645325,22.8320122 L22.410874,22.8320122 C21.4699187,19.7079268 18.601626,17.4119919 15.1762195,17.4119919 C11.750813,17.4119919 8.8824187,19.7079268 7.94156504,22.8320122 L2.1679878,22.8320122 C0.971239837,22.8320122 0,23.803252 0,25 C0,26.196748 0.971239837,27.1679878 2.1679878,27.1679878 L7.94146341,27.1679878 C8.8824187,30.2920732 11.7507114,32.5880081 15.1761179,32.5880081 C18.6015244,32.5880081 21.4699187,30.2920732 22.4107724,27.1679878 L49.8644309,27.1679878 C51.063313,27.1679878 52.0324187,26.196748 52.0324187,25 C52.0324187,23.803252 51.0634146,22.8320122 49.8645325,22.8320122 Z M15.1761179,28.2520325 C13.3831301,28.2520325 11.9240854,26.7929878 11.9240854,25 C11.9240854,23.2070122 13.3831301,21.7479675 15.1761179,21.7479675 C16.9691057,21.7479675 18.4281504,23.2070122 18.4281504,25 C18.4281504,26.7929878 16.9691057,28.2520325 15.1761179,28.2520325 Z" id="Shape"></path>
                    </g>
                </g>
            </g>
        </g>
    </g>
</svg>