<?xml version="1.0" encoding="UTF-8"?>
<svg width="50px" height="50px" viewBox="0 0 50 50" version="1.1" xmlns="http://www.w3.org/2000/svg" xmlns:xlink="http://www.w3.org/1999/xlink">
    <!-- Generator: Sketch 64 (93537) - https://sketch.com -->
    <title>info</title>
    <desc>Created with Sketch.</desc>
    <g id="Корзина" stroke="none" stroke-width="1" fill="none" fill-rule="evenodd">
        <g id="Фильтры" transform="translate(-658.000000, -410.000000)" fill="#FF0139" fill-rule="nonzero">
            <g id="Group-5" transform="translate(591.000000, 410.000000)">
                <g id="info" transform="translate(67.000000, 0.000000)">
                    <path d="M25,0 C11.1930339,0 0,11.1930339 0,25 C0,38.8069661 11.1930339,50 25,50 C38.8069661,50 50,38.8069661 50,25 C49.9845377,11.1995443 38.8004557,0.0154622917 25,0 Z M25,48.3333333 C12.113444,48.3333333 1.66666667,37.886556 1.66666667,25 C1.66666667,12.113444 12.113444,1.66666667 25,1.66666667 C37.886556,1.66666667 48.3333333,12.113444 48.3333333,25 C48.3186849,37.8804525 37.8804525,48.3186849 25,48.3333333 Z" id="Shape"></path>
                    <path d="M25,20 C24.5397949,20 24.1666667,20.3731282 24.1666667,20.8333333 L24.1666667,37.5 C24.1666667,37.9602051 24.5397949,38.3333333 25,38.3333333 C25.4602051,38.3333333 25.8333333,37.9602051 25.8333333,37.5 L25.8333333,20.8333333 C25.8333333,20.3731282 25.4602051,20 25,20 Z" id="Path"></path>
                    <path d="M25,11.6666667 C23.6193848,11.6666667 22.5,12.7860515 22.5,14.1666667 C22.5,15.5472819 23.6193848,16.6666667 25,16.6666667 C26.3806152,16.6666667 27.5,15.5472819 27.5,14.1666667 C27.5,12.7860515 26.3806152,11.6666667 25,11.6666667 Z M25,15 C24.5397949,15 24.1666667,14.6268718 24.1666667,14.1666667 C24.1666667,13.7064616 24.5397949,13.3333333 25,13.3333333 C25.4602051,13.3333333 25.8333333,13.7064616 25.8333333,14.1666667 C25.8333333,14.6268718 25.4602051,15 25,15 Z" id="Shape"></path>
                </g>
            </g>
        </g>
    </g>
</svg>