<?xml version="1.0" encoding="UTF-8"?>
<svg width="22px" height="22px" viewBox="0 0 22 22" version="1.1" xmlns="http://www.w3.org/2000/svg" xmlns:xlink="http://www.w3.org/1999/xlink">
    <!-- Generator: Sketch 64 (93537) - https://sketch.com -->
    <title>largeList</title>
    <desc>Created with Sketch.</desc>
    <g id="Symbols" stroke="none" stroke-width="1" fill="none" fill-rule="evenodd">
        <g id="largeList" transform="translate(-4.000000, -4.000000)">
            <rect id="Rectangle" x="0" y="0" width="30" height="30"></rect>
            <g id="Group-4" transform="translate(4.000000, 4.500000)">
                <line x1="8.5" y1="0.5" x2="21.5" y2="0.5" id="Line" stroke="#FF0139" stroke-linecap="square"></line>
                <line x1="15.5" y1="2.5" x2="21.5" y2="2.5" id="Line-4" stroke="#FF0139" stroke-linecap="square"></line>
                <line x1="8.5" y1="4.5" x2="12.5" y2="4.5" id="Line-3" stroke="#FF0139" stroke-linecap="square"></line>
                <line x1="15.5" y1="4.5" x2="21.5" y2="4.5" id="Line-3" stroke="#FF0139" stroke-linecap="square"></line>
                <line x1="8.5" y1="2.5" x2="12.5" y2="2.5" id="Line-2" stroke="#FF0139" stroke-linecap="square"></line>
                <rect id="Rectangle" fill="#FF0139" x="0" y="0" width="5" height="5"></rect>
            </g>
            <g id="Group-4" transform="translate(4.000000, 12.500000)">
                <line x1="8.5" y1="0.5" x2="21.5" y2="0.5" id="Line" stroke="#FF0139" stroke-linecap="square"></line>
                <line x1="15.5" y1="2.5" x2="21.5" y2="2.5" id="Line-4" stroke="#FF0139" stroke-linecap="square"></line>
                <line x1="8.5" y1="4.5" x2="12.5" y2="4.5" id="Line-3" stroke="#FF0139" stroke-linecap="square"></line>
                <line x1="15.5" y1="4.5" x2="21.5" y2="4.5" id="Line-3" stroke="#FF0139" stroke-linecap="square"></line>
                <line x1="8.5" y1="2.5" x2="12.5" y2="2.5" id="Line-2" stroke="#FF0139" stroke-linecap="square"></line>
                <rect id="Rectangle" fill="#FF0139" x="0" y="0" width="5" height="5"></rect>
            </g>
            <g id="Group-4" transform="translate(4.000000, 20.500000)">
                <line x1="8.5" y1="0.5" x2="21.5" y2="0.5" id="Line" stroke="#FF0139" stroke-linecap="square"></line>
                <line x1="15.5" y1="2.5" x2="21.5" y2="2.5" id="Line-4" stroke="#FF0139" stroke-linecap="square"></line>
                <line x1="8.5" y1="4.5" x2="12.5" y2="4.5" id="Line-3" stroke="#FF0139" stroke-linecap="square"></line>
                <line x1="15.5" y1="4.5" x2="21.5" y2="4.5" id="Line-3" stroke="#FF0139" stroke-linecap="square"></line>
                <line x1="8.5" y1="2.5" x2="12.5" y2="2.5" id="Line-2" stroke="#FF0139" stroke-linecap="square"></line>
                <rect id="Rectangle" fill="#FF0139" x="0" y="0" width="5" height="5"></rect>
            </g>
        </g>
    </g>
</svg>