<?xml version="1.0" encoding="UTF-8"?>
<svg width="84px" height="80px" viewBox="0 0 84 80" version="1.1" xmlns="http://www.w3.org/2000/svg" xmlns:xlink="http://www.w3.org/1999/xlink">
    <!-- Generator: Sketch 64 (93537) - https://sketch.com -->
    <title>box</title>
    <desc>Created with Sketch.</desc>
    <defs>
        <path d="M50.4988394,21.5442723 L47.7874102,21.5442723 C47.4700778,20.3981572 46.430062,19.6005236 45.2383902,19.5893176 L42.3439784,19.5893176 L42.3439784,12.5271522 C42.3506265,12.2581716 42.2114061,12.006511 41.979755,11.8687669 L21.5613617,0.101894386 C21.3270985,-0.0339647952 21.0377875,-0.0339647952 20.8035244,0.101894386 L0.37881759,11.8687669 C0.143592813,12.004811 -0.000861914974,12.2558786 3.87004898e-06,12.5271522 L3.87004898e-06,36.0610059 C3.87004898e-06,36.3326138 0.145245143,36.5835873 0.380994657,36.7193912 L20.8077696,48.4862638 C20.9236024,48.5529973 21.0550004,48.5881328 21.1887565,48.5881386 C21.3259683,48.5882177 21.4609016,48.5531392 21.5806287,48.4862638 L32.3294661,42.300244 L32.3294661,46.7720943 C32.3272258,47.6320621 32.6699173,48.4571783 33.2811452,49.063502 C33.8923731,49.6698257 34.7213244,50.0069514 35.5832029,49.9998647 L50.4988394,49.9998647 C51.3628947,50.0077404 52.1944618,49.6715383 52.8091955,49.065649 C53.4239293,48.4597597 53.7710422,47.63424 53.7735849,46.7720943 L53.7735849,24.822297 C53.7725195,23.0164858 52.3087077,21.5512083 50.4988394,21.5442723 Z M45.2654947,21.109838 C45.8763544,21.109838 46.371554,21.6039239 46.371554,22.2134099 L46.371554,22.2870465 C46.371554,22.8965325 45.8763544,23.3906185 45.2654947,23.3906185 L40.8375563,23.3906185 C40.2266966,23.3906185 39.731497,22.8965325 39.731497,22.2870465 L39.731497,22.2134099 C39.731497,21.6039239 40.2266966,21.109838 40.8375563,21.109838 L45.2654947,21.109838 Z M21.1887565,1.63816298 L29.6764911,6.52750477 L10.7749699,17.4157338 L2.28734416,12.526392 L21.1887565,1.63816298 Z M20.464446,46.5109992 L1.52395531,35.62201 L1.52395531,13.8422937 L20.464446,24.731283 L20.464446,46.5109992 Z M21.1887565,23.4145124 L12.2989175,18.2935084 L31.2004387,7.40538805 L40.0907132,12.526392 L21.1887565,23.4145124 Z M32.3294661,24.822297 L32.3294661,40.544586 L21.9883936,46.5109992 L21.9883936,24.731283 L40.8200309,13.8422937 L40.8200309,19.5893176 L40.8436521,19.5893176 C39.6519677,19.6004872 38.6119324,20.3981357 38.2946321,21.5442723 L35.5832029,21.5442723 C33.7774702,21.5530087 32.3207278,23.0206251 32.3294661,24.822297 Z M52.2496374,46.7720943 C52.2475307,47.2311235 52.0611066,47.6701571 51.7320667,47.9909864 C51.4030269,48.3118156 50.9588298,48.4876671 50.4988394,48.4792042 L35.5832029,48.4792042 C35.1253834,48.4869005 34.6837845,48.3101301 34.358244,47.9888579 C34.0327036,47.6675856 33.8507117,47.2289411 33.853326,46.7720943 L33.853326,24.822297 C33.8487735,24.360239 34.0285157,23.9153125 34.3530083,23.5856208 C34.6775009,23.2559291 35.1200955,23.0685476 35.5832029,23.0647927 L38.3243491,23.0647927 C38.6600058,24.1701476 39.686126,24.9221703 40.8436521,24.9111388 L45.2383902,24.9111388 C46.3958996,24.9221944 47.4220013,24.1701527 47.7575843,23.0647927 L50.4988394,23.0647927 C51.4674019,23.0708827 52.2494172,23.8558935 52.2496374,24.822297 L52.2496374,46.7720943 Z" id="path-1"></path>
        <filter x="-55.8%" y="-60.0%" width="211.6%" height="220.0%" filterUnits="objectBoundingBox" id="filter-2">
            <feOffset dx="0" dy="0" in="SourceAlpha" result="shadowOffsetOuter1"></feOffset>
            <feGaussianBlur stdDeviation="10" in="shadowOffsetOuter1" result="shadowBlurOuter1"></feGaussianBlur>
            <feColorMatrix values="0 0 0 0 1   0 0 0 0 0.00297256098   0 0 0 0 0.225212069  0 0 0 1 0" type="matrix" in="shadowBlurOuter1"></feColorMatrix>
        </filter>
        <path d="M36.5464815,32.0754717 L37.2818261,32.0754717 C37.6698209,32.0754717 37.9843527,31.7609387 37.9843527,31.3729426 C37.9843527,30.9849465 37.6698209,30.6704135 37.2818261,30.6704135 L37.2541265,30.6704135 L37.2541265,28.7635488 L39.1917953,28.7635488 C39.2824352,29.0538732 39.5557193,29.2479857 39.8596974,29.2379566 C40.2481213,29.2390129 40.5641023,28.9254552 40.5660377,28.5370333 L40.5660377,28.0643316 C40.5627386,27.6741985 40.2460283,27.3594117 39.8558837,27.3584906 L36.5464815,27.3584906 C36.3603484,27.3594455 36.1822366,27.4343868 36.051412,27.5667933 C35.9205874,27.6991998 35.8477917,27.8781998 35.8490566,28.0643316 L35.8490566,31.3737455 C35.847951,31.5594488 35.9209288,31.737933 36.0518371,31.8696518 C36.1827455,32.0013707 36.3607754,32.0754717 36.5464815,32.0754717 Z" id="path-3"></path>
        <filter x="-636.0%" y="-636.0%" width="1372.0%" height="1372.0%" filterUnits="objectBoundingBox" id="filter-4">
            <feOffset dx="0" dy="0" in="SourceAlpha" result="shadowOffsetOuter1"></feOffset>
            <feGaussianBlur stdDeviation="10" in="shadowOffsetOuter1" result="shadowBlurOuter1"></feGaussianBlur>
            <feColorMatrix values="0 0 0 0 1   0 0 0 0 0.00297256098   0 0 0 0 0.225212069  0 0 0 1 0" type="matrix" in="shadowBlurOuter1"></feColorMatrix>
        </filter>
        <path d="M36.5515857,39.6226415 L39.8635086,39.6226415 C40.2515047,39.6226415 40.5660377,39.3081085 40.5660377,38.9201124 L40.5660377,35.6081895 C40.5660377,35.2201934 40.2515047,34.9056604 39.8635086,34.9056604 L36.5515857,34.9056604 C36.1635896,34.9056604 35.8490566,35.2201934 35.8490566,35.6081895 L35.8490566,38.9201124 C35.8490566,39.3081085 36.1635896,39.6226415 36.5515857,39.6226415 Z M37.2541148,36.3107186 L39.1609795,36.3107186 L39.1609795,38.2175833 L37.2541148,38.2175833 L37.2541148,36.3107186 Z" id="path-5"></path>
        <filter x="-636.0%" y="-636.0%" width="1372.0%" height="1372.0%" filterUnits="objectBoundingBox" id="filter-6">
            <feOffset dx="0" dy="0" in="SourceAlpha" result="shadowOffsetOuter1"></feOffset>
            <feGaussianBlur stdDeviation="10" in="shadowOffsetOuter1" result="shadowBlurOuter1"></feGaussianBlur>
            <feColorMatrix values="0 0 0 0 1   0 0 0 0 0.00297256098   0 0 0 0 0.225212069  0 0 0 1 0" type="matrix" in="shadowBlurOuter1"></feColorMatrix>
        </filter>
        <path d="M37.2819483,44.8211541 L37.2541485,44.8211541 L37.2541485,42.9144061 L39.1538682,42.9144061 C39.1614124,43.2986794 39.474898,43.6063616 39.8592648,43.606744 C40.2436316,43.6071264 40.5577288,43.3000686 40.5660377,42.9158111 L40.5660377,42.2389156 C40.564547,41.8441423 40.2504989,41.5215448 39.8558884,41.509434 L36.5465081,41.509434 C36.1543884,41.5226113 35.8446275,41.8466201 35.8491045,42.2389156 L35.8491045,45.5481268 C35.8489179,45.731385 35.922971,45.9069044 36.0543727,46.0346501 C36.1857745,46.1623957 36.3633185,46.2314732 36.5465081,46.2261263 L37.2819483,46.2261263 C37.6699404,46.2261263 37.9844702,45.9116125 37.9844702,45.5236402 C37.9844702,45.1356678 37.6699404,44.8211541 37.2819483,44.8211541 L37.2819483,44.8211541 Z" id="path-7"></path>
        <filter x="-636.0%" y="-636.0%" width="1372.0%" height="1372.0%" filterUnits="objectBoundingBox" id="filter-8">
            <feOffset dx="0" dy="0" in="SourceAlpha" result="shadowOffsetOuter1"></feOffset>
            <feGaussianBlur stdDeviation="10" in="shadowOffsetOuter1" result="shadowBlurOuter1"></feGaussianBlur>
            <feColorMatrix values="0 0 0 0 1   0 0 0 0 0.00297256098   0 0 0 0 0.225212069  0 0 0 1 0" type="matrix" in="shadowBlurOuter1"></feColorMatrix>
        </filter>
        <path d="M42.060115,28.547386 L39.7686848,30.9983644 L39.0716429,30.2526692 C38.8739691,30.0412317 38.5858532,29.9586559 38.3158258,30.0360474 C38.0457983,30.1134389 37.8348829,30.3390401 37.7625292,30.627869 C37.6901756,30.916698 37.767376,31.2248749 37.9650498,31.4363124 L39.2155,32.7737097 C39.3622382,32.930681 39.5612669,33.0188679 39.7687966,33.0188679 C39.9763263,33.0188679 40.175355,32.930681 40.3220932,32.7737097 L43.1670435,29.7306706 C43.4726207,29.4038165 43.4726207,28.8738814 43.1670435,28.5470273 C42.8614662,28.2201733 42.3660276,28.2201733 42.0604504,28.5470273 L42.060115,28.547386 Z" id="path-9"></path>
        <filter x="-530.0%" y="-636.0%" width="1160.0%" height="1372.0%" filterUnits="objectBoundingBox" id="filter-10">
            <feOffset dx="0" dy="0" in="SourceAlpha" result="shadowOffsetOuter1"></feOffset>
            <feGaussianBlur stdDeviation="10" in="shadowOffsetOuter1" result="shadowBlurOuter1"></feGaussianBlur>
            <feColorMatrix values="0 0 0 0 1   0 0 0 0 0.00297256098   0 0 0 0 0.225212069  0 0 0 1 0" type="matrix" in="shadowBlurOuter1"></feColorMatrix>
        </filter>
        <path d="M42.0601151,42.6983294 L39.7686848,45.1493078 L39.0716429,44.4036126 C38.8739691,44.1921751 38.5858532,44.1095993 38.3158258,44.1869908 C38.0457983,44.2643823 37.8348829,44.4899834 37.7625292,44.7788124 C37.6901756,45.0676414 37.767376,45.3758183 37.9650498,45.5872558 L39.2155001,46.9246531 C39.3622382,47.0816244 39.5612669,47.1698113 39.7687966,47.1698113 C39.9763263,47.1698113 40.175355,47.0816244 40.3220932,46.9246531 L43.1670435,43.8816139 C43.4726207,43.5547599 43.4726207,43.0248248 43.1670435,42.6979707 C42.8614662,42.3711167 42.3660276,42.3711167 42.0604504,42.6979707 L42.0601151,42.6983294 Z" id="path-11"></path>
        <filter x="-530.0%" y="-636.0%" width="1160.0%" height="1372.0%" filterUnits="objectBoundingBox" id="filter-12">
            <feOffset dx="0" dy="0" in="SourceAlpha" result="shadowOffsetOuter1"></feOffset>
            <feGaussianBlur stdDeviation="10" in="shadowOffsetOuter1" result="shadowBlurOuter1"></feGaussianBlur>
            <feColorMatrix values="0 0 0 0 1   0 0 0 0 0.00297256098   0 0 0 0 0.225212069  0 0 0 1 0" type="matrix" in="shadowBlurOuter1"></feColorMatrix>
        </filter>
        <path d="M50.1459216,29.245283 L45.1370973,29.245283 C44.6966642,29.245283 44.3396226,29.6676559 44.3396226,30.1886792 C44.3396226,30.7097026 44.6966642,31.1320755 45.1370973,31.1320755 L50.1459216,31.1320755 C50.5863547,31.1320755 50.9433962,30.7097026 50.9433962,30.1886792 C50.9433962,29.6676559 50.5863547,29.245283 50.1459216,29.245283 L50.1459216,29.245283 Z" id="path-13"></path>
        <filter x="-454.3%" y="-1590.0%" width="1008.6%" height="3280.0%" filterUnits="objectBoundingBox" id="filter-14">
            <feOffset dx="0" dy="0" in="SourceAlpha" result="shadowOffsetOuter1"></feOffset>
            <feGaussianBlur stdDeviation="10" in="shadowOffsetOuter1" result="shadowBlurOuter1"></feGaussianBlur>
            <feColorMatrix values="0 0 0 0 1   0 0 0 0 0.00297256098   0 0 0 0 0.225212069  0 0 0 1 0" type="matrix" in="shadowBlurOuter1"></feColorMatrix>
        </filter>
        <path d="M50.1459216,35.8490566 L45.1370973,35.8490566 C44.6966642,35.8490566 44.3396226,36.2714295 44.3396226,36.7924528 C44.3396226,37.3134762 44.6966642,37.7358491 45.1370973,37.7358491 L50.1459216,37.7358491 C50.5863547,37.7358491 50.9433962,37.3134762 50.9433962,36.7924528 C50.9433962,36.2714295 50.5863547,35.8490566 50.1459216,35.8490566 L50.1459216,35.8490566 Z" id="path-15"></path>
        <filter x="-454.3%" y="-1590.0%" width="1008.6%" height="3280.0%" filterUnits="objectBoundingBox" id="filter-16">
            <feOffset dx="0" dy="0" in="SourceAlpha" result="shadowOffsetOuter1"></feOffset>
            <feGaussianBlur stdDeviation="10" in="shadowOffsetOuter1" result="shadowBlurOuter1"></feGaussianBlur>
            <feColorMatrix values="0 0 0 0 1   0 0 0 0 0.00297256098   0 0 0 0 0.225212069  0 0 0 1 0" type="matrix" in="shadowBlurOuter1"></feColorMatrix>
        </filter>
        <path d="M50.1459216,43.3962264 L45.1370973,43.3962264 C44.6966642,43.3962264 44.3396226,43.8185993 44.3396226,44.3396226 C44.3396226,44.860646 44.6966642,45.2830189 45.1370973,45.2830189 L50.1459216,45.2830189 C50.5863547,45.2830189 50.9433962,44.860646 50.9433962,44.3396226 C50.9433962,43.8185993 50.5863547,43.3962264 50.1459216,43.3962264 L50.1459216,43.3962264 Z" id="path-17"></path>
        <filter x="-454.3%" y="-1590.0%" width="1008.6%" height="3280.0%" filterUnits="objectBoundingBox" id="filter-18">
            <feOffset dx="0" dy="0" in="SourceAlpha" result="shadowOffsetOuter1"></feOffset>
            <feGaussianBlur stdDeviation="10" in="shadowOffsetOuter1" result="shadowBlurOuter1"></feGaussianBlur>
            <feColorMatrix values="0 0 0 0 1   0 0 0 0 0.00297256098   0 0 0 0 0.225212069  0 0 0 1 0" type="matrix" in="shadowBlurOuter1"></feColorMatrix>
        </filter>
    </defs>
    <g id="box" stroke="none" stroke-width="1" fill="none" fill-rule="evenodd">
        <g transform="translate(15.000000, 15.000000)" fill-rule="nonzero">
            <g id="Shape">
                <use fill="black" fill-opacity="1" filter="url(#filter-2)" xlink:href="#path-1"></use>
                <use fill="#FF0139" xlink:href="#path-1"></use>
            </g>
            <g id="Path">
                <use fill="black" fill-opacity="1" filter="url(#filter-4)" xlink:href="#path-3"></use>
                <use fill="#FF0139" xlink:href="#path-3"></use>
            </g>
            <g id="Shape">
                <use fill="black" fill-opacity="1" filter="url(#filter-6)" xlink:href="#path-5"></use>
                <use fill="#FF0139" xlink:href="#path-5"></use>
            </g>
            <g id="Path">
                <use fill="black" fill-opacity="1" filter="url(#filter-8)" xlink:href="#path-7"></use>
                <use fill="#FF0139" xlink:href="#path-7"></use>
            </g>
            <g id="Path">
                <use fill="black" fill-opacity="1" filter="url(#filter-10)" xlink:href="#path-9"></use>
                <use fill="#FF0139" xlink:href="#path-9"></use>
            </g>
            <g id="Path">
                <use fill="black" fill-opacity="1" filter="url(#filter-12)" xlink:href="#path-11"></use>
                <use fill="#FF0139" xlink:href="#path-11"></use>
            </g>
            <g id="Path">
                <use fill="black" fill-opacity="1" filter="url(#filter-14)" xlink:href="#path-13"></use>
                <use fill="#FF0139" xlink:href="#path-13"></use>
            </g>
            <g id="Path">
                <use fill="black" fill-opacity="1" filter="url(#filter-16)" xlink:href="#path-15"></use>
                <use fill="#FF0139" xlink:href="#path-15"></use>
            </g>
            <g id="Path">
                <use fill="black" fill-opacity="1" filter="url(#filter-18)" xlink:href="#path-17"></use>
                <use fill="#FF0139" xlink:href="#path-17"></use>
            </g>
        </g>
    </g>
</svg>