<?xml version="1.0" encoding="UTF-8"?>
<svg width="20px" height="20px" viewBox="0 0 20 20" version="1.1" xmlns="http://www.w3.org/2000/svg" xmlns:xlink="http://www.w3.org/1999/xlink">
    <!-- Generator: Sketch 64 (93537) - https://sketch.com -->
    <title>logout</title>
    <desc>Created with Sketch.</desc>
    <g id="Symbols" stroke="none" stroke-width="1" fill="none" fill-rule="evenodd">
        <g id="logout" fill="#FF0139" fill-rule="nonzero">
            <path d="M19.7732554,9.67649123 C19.7811696,9.6668616 19.7880312,9.65672515 19.7953996,9.6468616 C19.8042495,9.63500975 19.8134503,9.6234308 19.8216764,9.61111111 C19.8295906,9.59929825 19.8364522,9.58701754 19.8437037,9.5748538 C19.8503704,9.5637037 19.8573489,9.55282651 19.8635088,9.54132554 C19.8701365,9.52892788 19.8757505,9.51617934 19.8817154,9.50354776 C19.8873684,9.49157895 19.8933333,9.47980507 19.8984016,9.46756335 C19.9034698,9.45528265 19.9075634,9.44276803 19.9120468,9.4302924 C19.9167641,9.417154 19.9217934,9.40417154 19.9258869,9.39072125 C19.9296686,9.37824561 19.9324366,9.36557505 19.9355945,9.35298246 C19.9390643,9.33929825 19.942885,9.32576998 19.945653,9.31181287 C19.948538,9.29719298 19.9502534,9.28245614 19.9523587,9.26775828 C19.9540741,9.25563353 19.9564133,9.24366472 19.9576218,9.23138402 C19.9630019,9.17680312 19.9630019,9.12179337 19.9576218,9.06721248 C19.9564133,9.05493177 19.9541131,9.04300195 19.9523587,9.03087719 C19.9502534,9.01614035 19.948538,9.00140351 19.945614,8.98682261 C19.942846,8.9728655 19.9390253,8.95937622 19.9355556,8.94569201 C19.9323977,8.93306043 19.9296296,8.92038986 19.925848,8.90791423 C19.9217934,8.89450292 19.9167641,8.88152047 19.9120468,8.86842105 C19.9075634,8.85594542 19.9034698,8.84339181 19.8984016,8.83111111 C19.8933333,8.8188694 19.8873684,8.80709552 19.8817154,8.79516569 C19.8757505,8.78249513 19.8701365,8.76974659 19.8635088,8.75734893 C19.8573879,8.74588694 19.8503704,8.73500975 19.8437427,8.72385965 C19.8364912,8.71169591 19.8296296,8.6994152 19.8217154,8.68756335 C19.8134893,8.67528265 19.8043275,8.6637037 19.7954776,8.65189084 C19.7880702,8.6419883 19.7811696,8.63181287 19.7732554,8.62218324 C19.7559844,8.60116959 19.7378168,8.58093567 19.7185965,8.5617154 C19.7184405,8.56155945 19.7183236,8.56140351 19.7181676,8.56124756 L17.2230409,6.06612086 C16.8982456,5.74132554 16.3716179,5.74132554 16.0468226,6.06612086 C15.7220273,6.39091618 15.7220273,6.91754386 16.0468226,7.24233918 L17.1221442,8.31766082 L14.97154,8.31766082 L14.97154,0.832280702 C14.97154,0.37294347 14.5991813,0.000408312162 14.1398441,0.000408312162 L0.848031189,0.000408312162 C0.816023392,-7.79727096e-05 0.784288499,0.00113060429 0.75294347,0.00413255361 C0.746354776,0.00467836257 0.739883041,0.00538011696 0.733333333,0.00608187135 C0.726939571,0.00686159844 0.720545809,0.00779727096 0.714191033,0.00869395712 C0.358830409,0.0529824561 0.126042885,0.294580897 0.0389083821,0.581559454 C0.032748538,0.601130604 0.0274853801,0.621091618 0.0227680312,0.641325536 C0.0225730994,0.642105263 0.0224561404,0.64288499 0.0222612086,0.643664717 C0.0173879142,0.664795322 0.0134502924,0.686276803 0.010214425,0.708070175 C0.00990253411,0.710097466 0.00959064327,0.712124756 0.00927875244,0.714152047 C0.00651072125,0.733762183 0.00428849903,0.753528265 0.00292397661,0.773606238 C0.000428381815,0.803703704 -3.89863548e-05,0.833879142 0.000740740741,0.864054581 L0.000740740741,17.4664327 C0.000740740741,17.862885 0.280584795,18.2042495 0.669356725,18.2819883 L8.98643275,19.9454191 C9.50109162,20.0483431 9.98124756,19.6546979 9.98124756,19.1298635 L9.98124756,18.2981676 L14.1398051,18.2981676 C14.5991423,18.2981676 14.971501,17.925809 14.971501,17.4664717 L14.971501,9.98109162 L17.1221053,9.98109162 L16.0467836,11.0564133 C15.7219883,11.3812086 15.7219883,11.9078363 16.0467836,12.2326316 C16.3715789,12.5574269 16.8982066,12.5574269 17.2230019,12.2326316 L19.7181287,9.73750487 C19.7182846,9.73734893 19.7184016,9.73719298 19.7185575,9.73703704 C19.7378168,9.71773879 19.7559844,9.69754386 19.7732554,9.67649123 Z M8.31785575,18.1153216 L1.66417154,16.7846004 L1.66417154,1.95009747 L8.31785575,3.94619883 L8.31785575,17.4664327 L8.31785575,18.1153216 Z M13.3081481,16.6347368 L9.98128655,16.6347368 L9.98128655,3.32736842 C9.98128655,2.96007797 9.74035088,2.63625731 9.388577,2.53072125 L6.49929825,1.66393762 L13.3081481,1.66393762 L13.3081481,16.6347368 L13.3081481,16.6347368 Z" id="Shape"></path>
            <path d="M6.85614035,11.6693177 L5.19270955,11.2534503 C4.74709552,11.1420273 4.29551657,11.4129825 4.18413255,11.8585965 C4.07270955,12.3042105 4.34366472,12.7557895 4.78927875,12.8671735 L6.45270955,13.2830409 C6.89832359,13.3944639 7.34990253,13.1235088 7.46128655,12.6778947 C7.57270955,12.2322807 7.30175439,11.7807018 6.85614035,11.6693177 Z" id="Path"></path>
        </g>
    </g>
</svg>