<?xml version="1.0" encoding="UTF-8"?>
<svg width="20px" height="20px" viewBox="0 0 20 20" version="1.1" xmlns="http://www.w3.org/2000/svg" xmlns:xlink="http://www.w3.org/1999/xlink">
    <!-- Generator: Sketch 64 (93537) - https://sketch.com -->
    <title>search</title>
    <desc>Created with Sketch.</desc>
    <g id="Товары" stroke="none" stroke-width="1" fill="none" fill-rule="evenodd">
        <g id="Main" transform="translate(-596.000000, -288.000000)" fill="#FF0139" fill-rule="nonzero">
            <g id="Меню-товаров" transform="translate(516.000000, 213.000000)">
                <g id="Поиск" transform="translate(56.000000, 56.000000)">
                    <g id="search" transform="translate(24.000000, 19.000000)">
                        <path d="M19.8779297,19.28875 L13.7925391,13.2033203 C15.0565234,11.7999219 15.8333594,9.94957031 15.8333594,7.91664062 C15.8333203,3.55144531 12.2819141,0 7.91667969,0 C3.55144531,0 0,3.55144531 0,7.91667969 C0,12.2819141 3.55144531,15.8333594 7.91667969,15.8333594 C9.94960938,15.8333594 11.7999219,15.0565234 13.2033594,13.7925391 L19.28875,19.8779297 C19.3701172,19.9592969 19.4767578,20 19.5833594,20 C19.6899609,20 19.7965625,19.9592969 19.8779687,19.8779297 C20.0407031,19.7151562 20.0407031,19.4514844 19.8779297,19.28875 Z M7.91667969,15 C4.01125,15 0.833359375,11.8225 0.833359375,7.91667969 C0.833359375,4.01085937 4.01125,0.833320312 7.91667969,0.833320312 C11.8221094,0.833320312 15,4.01082031 15,7.91667969 C15,11.8225391 11.8221094,15 7.91667969,15 Z" id="Shape"></path>
                    </g>
                </g>
            </g>
        </g>
    </g>
</svg>