<?xml version="1.0" encoding="UTF-8"?>
<svg width="35px" height="35px" viewBox="0 0 35 35" version="1.1" xmlns="http://www.w3.org/2000/svg" xmlns:xlink="http://www.w3.org/1999/xlink">
    <!-- Generator: Sketch 64 (93537) - https://sketch.com -->
    <title>search</title>
    <desc>Created with Sketch.</desc>
    <g id="Документооборот" stroke="none" stroke-width="1" fill="none" fill-rule="evenodd">
        <g id="Фильтры" transform="translate(-1418.000000, -187.000000)" fill="#050218">
            <g id="Group-3" transform="translate(572.000000, 170.000000)">
                <g id="search" transform="translate(846.000000, 17.000000)">
                    <g id="Shape">
                        <path d="M34.786377,33.7553125 L24.1369434,23.1058105 C26.348916,20.6498633 27.7083789,17.411748 27.7083789,13.8541211 C27.7083105,6.2150293 21.4933496,0 13.8541895,0 C6.2150293,0 0,6.2150293 0,13.8541895 C0,21.4933496 6.2150293,27.7083789 13.8541895,27.7083789 C17.4118164,27.7083789 20.6498633,26.348916 23.1058789,24.1369434 L33.7553125,34.786377 C33.8977051,34.9287695 34.0843262,35 34.2708789,35 C34.4574316,35 34.6439844,34.9287695 34.7864453,34.786377 C35.0712305,34.5015234 35.0712305,34.0400977 34.786377,33.7553125 Z M13.8541895,26.25 C7.0196875,26.25 1.45837891,20.689375 1.45837891,13.8541895 C1.45837891,7.01900391 7.0196875,1.45831055 13.8541895,1.45831055 C20.6886914,1.45831055 26.25,7.01893555 26.25,13.8541895 C26.25,20.6894434 20.6886914,26.25 13.8541895,26.25 Z" fill-rule="nonzero"></path>
                    </g>
                </g>
            </g>
        </g>
    </g>
</svg>