<?xml version="1.0" encoding="UTF-8"?>
<svg width="60px" height="60px" viewBox="0 0 60 60" version="1.1" xmlns="http://www.w3.org/2000/svg" xmlns:xlink="http://www.w3.org/1999/xlink">
    <!-- Generator: Sketch 64 (93537) - https://sketch.com -->
    <title>print</title>
    <desc>Created with Sketch.</desc>
    <g id="Документооборот" stroke="none" stroke-width="1" fill="none" fill-rule="evenodd">
        <g id="Фильтры" transform="translate(-769.000000, -339.000000)" fill="#FF0139" fill-rule="nonzero">
            <g id="Group-5" transform="translate(598.000000, 339.000000)">
                <g id="Group-4" transform="translate(26.000000, 0.000000)">
                    <g id="print" transform="translate(145.000000, 0.000000)">
                        <path d="M40.801519,12.0673419 C41.0365621,12.0674762 41.2620171,11.9741652 41.4282177,11.8079646 C41.5944184,11.641764 41.6877294,11.416309 41.6875951,11.1812658 L41.6875951,5.99139241 C41.6875951,5.50202617 41.2908852,5.10531646 40.801519,5.10531646 C40.3121528,5.10531646 39.9154429,5.50202617 39.9154429,5.99139241 L39.9154429,11.1812658 C39.9153086,11.416309 40.0086196,11.641764 40.1748202,11.8079646 C40.3410209,11.9741652 40.5664759,12.0674762 40.801519,12.0673419 Z" id="Path"></path>
                        <path d="M56.0759494,19.0379747 L51.043038,19.0379747 L51.043038,6.70886076 C51.0427586,6.21961028 50.6462125,5.82306414 50.156962,5.82278481 L44.7240506,5.82278481 L44.7240506,0.886075949 C44.7240506,0.396709715 44.3273409,0 43.8379747,0 L16.1620253,0 C15.6726591,0 15.2759494,0.396709715 15.2759494,0.886075949 L15.2759494,5.82278481 L9.84303797,5.82278481 C9.35378749,5.82306414 8.95724136,6.21961028 8.95696203,6.70886076 L8.95696203,19.0379747 L3.92405063,19.0379747 C1.75789832,19.0404858 0.00251115997,20.795873 0,22.9620253 L0,47.1189873 C0.00251115997,49.2851397 1.75789832,51.0405268 3.92405063,51.043038 L15.2744304,51.043038 L15.2744304,59.1139241 C15.2744304,59.6032903 15.6711401,60 16.1605063,60 L43.8394937,60 C44.3288599,60 44.7255696,59.6032903 44.7255696,59.1139241 L44.7255696,51.043038 L56.0759494,51.043038 C58.2421017,51.0405268 59.9974888,49.2851397 60,47.1189873 L60,22.9620253 C59.9974888,20.795873 58.2421017,19.0404858 56.0759494,19.0379747 Z M49.2708861,7.59493671 L49.2708861,19.0379747 L44.7240506,19.0379747 L44.7240506,7.59493671 L49.2708861,7.59493671 Z M17.0481013,1.7721519 L42.9518987,1.7721519 L42.9518987,19.0379747 L17.0481013,19.0379747 L17.0481013,1.7721519 Z M10.7291139,7.59493671 L15.2759494,7.59493671 L15.2759494,19.0379747 L10.7291139,19.0379747 L10.7291139,7.59493671 Z M10.7291139,49.2708861 L10.7291139,40.2531646 L15.2744304,40.2531646 L15.2744304,49.2708861 L10.7291139,49.2708861 Z M17.0465823,58.2278481 L17.0465823,40.2531646 L42.9534177,40.2531646 C42.9534177,40.2531646 42.9534177,50.1518987 42.9534177,50.156962 C42.9534177,50.1620253 42.9534177,58.2278481 42.9534177,58.2278481 L17.0465823,58.2278481 Z M44.7255696,49.2708861 L44.7255696,40.2531646 L49.2708861,40.2531646 L49.2708861,49.2708861 L44.7255696,49.2708861 Z M58.2278481,47.1189873 C58.2264531,48.3068699 57.2638319,49.269491 56.0759494,49.2708861 L51.043038,49.2708861 L51.043038,39.3670886 C51.0427586,38.8778381 50.6462125,38.481292 50.156962,38.4810127 L9.84303797,38.4810127 C9.35378749,38.481292 8.95724136,38.8778381 8.95696203,39.3670886 L8.95696203,49.2708861 L3.92405063,49.2708861 C2.73616811,49.269491 1.77354695,48.3068699 1.7721519,47.1189873 L1.7721519,22.9620253 C1.77354695,21.7741428 2.73616811,20.8115216 3.92405063,20.8101266 L56.0759494,20.8101266 C57.2638319,20.8115216 58.2264531,21.7741428 58.2278481,22.9620253 L58.2278481,47.1189873 Z" id="Shape"></path>
                        <path d="M18.0167089,25.1118987 L5.44303797,25.1118987 C4.95367174,25.1118987 4.55696203,25.5086084 4.55696203,25.9979747 C4.55696203,26.4873409 4.95367174,26.8840506 5.44303797,26.8840506 L18.0167089,26.8840506 C18.5060751,26.8840506 18.9027848,26.4873409 18.9027848,25.9979747 C18.9027848,25.5086084 18.5060751,25.1118987 18.0167089,25.1118987 L18.0167089,25.1118987 Z" id="Path"></path>
                        <path d="M37.5949367,42.7848101 L22.4050633,42.7848101 C21.9156971,42.7848101 21.5189873,43.1815198 21.5189873,43.6708861 C21.5189873,44.1602523 21.9156971,44.556962 22.4050633,44.556962 L37.5949367,44.556962 C38.0843029,44.556962 38.4810127,44.1602523 38.4810127,43.6708861 C38.4810127,43.1815198 38.0843029,42.7848101 37.5949367,42.7848101 Z" id="Path"></path>
                        <path d="M37.5949367,47.3417722 L22.4050633,47.3417722 C21.9156971,47.3417722 21.5189873,47.7384819 21.5189873,48.2278481 C21.5189873,48.7172143 21.9156971,49.1139241 22.4050633,49.1139241 L37.5949367,49.1139241 C38.0843029,49.1139241 38.4810127,48.7172143 38.4810127,48.2278481 C38.4810127,47.7384819 38.0843029,47.3417722 37.5949367,47.3417722 Z" id="Path"></path>
                        <path d="M37.5949367,51.8987342 L22.4050633,51.8987342 C21.9156971,51.8987342 21.5189873,52.2954439 21.5189873,52.7848101 C21.5189873,53.2741764 21.9156971,53.6708861 22.4050633,53.6708861 L37.5949367,53.6708861 C38.0843029,53.6708861 38.4810127,53.2741764 38.4810127,52.7848101 C38.4810127,52.2954439 38.0843029,51.8987342 37.5949367,51.8987342 Z" id="Path"></path>
                        <path d="M53.0379747,23.5929114 C51.7096949,23.5929114 50.6329114,24.6696949 50.6329114,25.9979747 C50.6329114,27.3262545 51.7096949,28.403038 53.0379747,28.403038 C54.3662545,28.403038 55.443038,27.3262545 55.443038,25.9979747 C55.4413642,24.6703888 54.3655605,23.5945852 53.0379747,23.5929114 Z M53.0379747,26.6308861 C52.6884274,26.6308861 52.4050633,26.347522 52.4050633,25.9979747 C52.4050633,25.6484274 52.6884274,25.3650633 53.0379747,25.3650633 C53.387522,25.3650633 53.6708861,25.6484274 53.6708861,25.9979747 C53.6706069,26.3474063 53.3874063,26.6306069 53.0379747,26.6308861 L53.0379747,26.6308861 Z" id="Shape"></path>
                        <path d="M47.0253165,23.5929114 C45.6970367,23.5929114 44.6202532,24.6696949 44.6202532,25.9979747 C44.6202532,27.3262545 45.6970367,28.403038 47.0253165,28.403038 C48.3535962,28.403038 49.4303797,27.3262545 49.4303797,25.9979747 C49.428706,24.6703888 48.3529023,23.5945852 47.0253165,23.5929114 Z M47.0253165,26.6308861 C46.6757691,26.6308861 46.3924051,26.347522 46.3924051,25.9979747 C46.3924051,25.6484274 46.6757691,25.3650633 47.0253165,25.3650633 C47.3748638,25.3650633 47.6582278,25.6484274 47.6582278,25.9979747 C47.6579486,26.3474063 47.374748,26.6306069 47.0253165,26.6308861 L47.0253165,26.6308861 Z" id="Shape"></path>
                        <path d="M41.0126582,23.5929114 C39.6846422,23.5929114 38.6079683,24.6692842 38.6075958,25.9973001 C38.6072234,27.3253161 39.6832933,28.4022922 41.0113092,28.403038 C42.339325,28.403783 43.4166032,27.3280156 43.4177215,26 C43.417164,24.6716233 42.341034,23.5945871 41.0126582,23.5929114 Z M41.0126582,26.6308861 C40.7564854,26.6308861 40.5255759,26.4764608 40.4277331,26.2397093 C40.3298903,26.0029578 40.3844117,25.7305731 40.5658433,25.5497221 C40.7472749,25.3688711 41.0198329,25.315223 41.2562696,25.4138241 C41.4927063,25.5124252 41.6463894,25.7438285 41.6455729,26 C41.6441763,26.3486404 41.3613013,26.6306102 41.0126582,26.6308861 L41.0126582,26.6308861 Z" id="Shape"></path>
                    </g>
                </g>
            </g>
        </g>
    </g>
</svg>