<?xml version="1.0" encoding="UTF-8"?>
<svg width="87px" height="73px" viewBox="0 0 87 73" version="1.1" xmlns="http://www.w3.org/2000/svg" xmlns:xlink="http://www.w3.org/1999/xlink">
    <!-- Generator: Sketch 64 (93537) - https://sketch.com -->
    <title>retail</title>
    <desc>Created with Sketch.</desc>
    <defs>
        <path d="M46.905218,36.5514192 L50.031832,36.5514192 C51.11728,36.5514192 52,35.6544148 52,34.5514018 C52,33.4487918 51.11728,32.5517874 50.031832,32.5517874 L33.480733,32.5517874 C33.0602012,32.5517874 32.7190151,32.8984948 32.7190151,33.3258317 C32.7190151,33.7531686 33.0602012,34.0998759 33.480733,34.0998759 L50.031832,34.0998759 C50.2770099,34.0998759 50.4765642,34.3022563 50.4765642,34.5514018 C50.4765642,34.8005472 50.2770099,35.0033307 50.031832,35.0033307 L22.9940196,35.0033307 C22.1672382,35.0033307 21.4138516,34.5413231 21.0282319,33.7975149 C20.6430089,33.05411 20.6937901,32.1619433 21.160739,31.4689317 L22.26523,29.830135 L23.4391484,29.6878237 L21.8938925,31.9797203 C21.6094385,32.4022195 21.5800807,32.9242962 21.8145469,33.3766284 C22.0498067,33.8293636 22.4909684,34.0998759 22.9940196,34.0998759 L30.4338613,34.0998759 C30.8547898,34.0998759 31.1955792,33.7531686 31.1955792,33.3258317 C31.1955792,32.8984948 30.8547898,32.5517874 30.4338613,32.5517874 L23.3550421,32.5517874 L25.1284167,29.9220527 C25.2272019,29.77571 25.3045639,29.6184823 25.3612961,29.4548042 L42.6181743,27.3608532 L45.8975286,26.9637524 C48.3683512,26.6630039 50.2313862,24.5299477 50.2313862,22.0022094 L50.2313862,19.1511464 C50.2313862,18.7238095 49.8902,18.3771022 49.4696683,18.3771022 C49.0491365,18.3771022 48.7079504,18.7238095 48.7079504,19.1511464 L48.7079504,19.5256709 L39.4455398,20.1481315 L39.0638873,15.5881239 L48.7079504,15.5292644 L48.7079504,16.0428749 C48.7079504,16.470212 49.0491365,16.8169192 49.4696683,16.8169192 C49.8902,16.8169192 50.2313862,16.470212 50.2313862,16.0428749 L50.2313862,14.7552201 C50.2313862,14.7519949 50.231783,14.7491729 50.231783,14.7459477 C50.231783,14.7435289 50.2313862,14.7411099 50.2313862,14.7386911 L50.2313862,10.4943485 C50.2313862,9.38488503 49.3776274,8.47014204 48.2878153,8.4116856 L26.1154761,7.21836738 C26.1063514,7.21796426 26.0972266,7.21715802 26.0881019,7.21715802 L15.0630284,6.62372409 L14.8916419,5.84000429 C14.6175027,4.58460123 13.6359975,3.62349629 12.3914614,3.39168614 L9.93849177,2.93491943 L10.0519559,2.28101324 C10.0936124,2.03993076 10.0408476,1.79683247 9.90278619,1.59687104 C9.76472481,1.39650648 9.55802951,1.26306445 9.32118287,1.22033081 L2.71288319,0.0362849262 C2.10509566,-0.0725649945 1.49175409,0.0653115855 0.985925758,0.425322868 C0.480097425,0.785334046 0.142481901,1.32353671 0.0353652677,1.94156264 C-0.186008953,3.21712306 0.655054587,4.43745222 1.91030225,4.66240877 L8.51860193,5.84645466 C8.57136674,5.85572699 8.62373484,5.86056477 8.67530955,5.86056477 C9.10377588,5.86056477 9.48463484,5.54772188 9.56199684,5.10425903 L9.67387411,4.45922216 L12.1169257,4.91397316 C12.7580383,5.03330498 13.2634698,5.52837078 13.404705,6.17502024 L17.6465217,25.6035309 C17.6465217,25.6039341 17.6469184,25.6047403 17.6469184,25.6051434 L18.2991394,28.5924705 C18.4911558,29.4717364 19.2504934,30.0772648 20.1153606,30.0772648 C20.1621745,30.0772648 20.2089884,30.0748459 20.256199,30.0712175 L19.9039044,30.5941005 C19.1163992,31.7624235 19.030706,33.2665689 19.6805466,34.5191499 C20.330784,35.7725372 21.6003138,36.5510161 22.9940196,36.5510161 L23.849762,36.5510161 L23.849762,36.9553736 C21.7395653,37.3242541 20.1284526,39.1960704 20.1284526,41.4440239 C20.1284526,43.9560394 22.1394672,46 24.61148,46 C27.0830959,46 29.0945073,43.9560394 29.0945073,41.4440239 C29.0945073,40.3216597 28.6890512,39.2432388 27.9531206,38.4075128 C27.6726339,38.0890259 27.1914027,38.0616118 26.8775908,38.3466375 C26.5641756,38.6316631 26.537198,39.1210849 26.8180816,39.4395718 C27.3036768,39.9910783 27.5710715,40.7030378 27.5710715,41.4440239 C27.5710715,43.102575 26.2432225,44.4515083 24.61148,44.4515083 C22.9797374,44.4515083 21.6518884,43.102575 21.6518884,41.4440239 C21.6518884,40.0531632 22.5857863,38.8804054 23.849762,38.5381327 L23.849762,39.4097389 C23.0428171,39.7225818 22.4671647,40.5155739 22.4671647,41.4440239 C22.4671647,42.6458083 23.4288336,43.6234422 24.61148,43.6234422 C25.7941263,43.6234422 26.7557952,42.6458083 26.7557952,41.4440239 C26.7557952,40.5155739 26.1801428,39.7229849 25.3731979,39.4097389 L25.3731979,36.5514192 L45.3817821,36.5514192 L45.3817821,36.9557767 C43.2715854,37.3242541 41.6604726,39.1960704 41.6604726,41.4440239 C41.6604726,43.9560394 43.6714873,46 46.1435001,46 C48.6155127,46 50.6265273,43.9560394 50.6265273,41.4440239 C50.6265273,40.3216597 50.221468,39.2432388 49.4855375,38.4075128 C49.2050507,38.0890259 48.7234227,38.0620149 48.4100076,38.3470406 C48.0965924,38.6320662 48.0696148,39.1210849 48.3501016,39.439975 C48.8356968,39.9914815 49.1034883,40.7030378 49.1034883,41.4440239 C49.1034883,43.102575 47.7756394,44.4519115 46.1438968,44.4519115 C44.5117574,44.4519115 43.1839085,43.102575 43.1839085,41.4440239 C43.1839085,40.0535663 44.1182031,38.8804054 45.3821788,38.5381327 L45.3821788,39.4097389 C44.5748372,39.7225818 43.9991847,40.5155739 43.9991847,41.4440239 C43.9991847,42.6458083 44.9612503,43.6234422 46.1438968,43.6234422 C47.3261465,43.6234422 48.288212,42.6458083 48.288212,41.4440239 C48.288212,40.5155739 47.7125596,39.7229849 46.9056147,39.4097389 L46.9056147,36.5514192 L46.905218,36.5514192 Z M2.1749198,3.13770292 C1.74685028,3.06110474 1.46041255,2.64505595 1.53579093,2.21046241 C1.57228992,1.99961596 1.68734101,1.81618357 1.85952105,1.69322345 C1.99361509,1.59808051 2.14952921,1.54849327 2.30980745,1.54849327 C2.35582781,1.54849327 2.40224507,1.5525248 2.44826553,1.56099089 L8.44322354,2.63497728 L8.16948121,4.21209243 L2.1749198,3.13770292 Z M29.8324215,27.3531934 L29.0651495,22.3964881 L38.0542144,21.7925724 L38.4322962,26.3098462 L29.8324215,27.3531934 Z M48.7079504,21.0773877 L48.7079504,22.0018063 C48.7079504,23.746631 47.4217579,25.2189277 45.7170173,25.4261457 L39.9458139,26.1264139 L39.5744764,21.690576 L48.7079504,21.0773877 Z M37.924881,20.250128 L28.8275093,20.8608972 L28.0213579,15.6550466 L37.5356907,15.5973964 L37.924881,20.250128 Z M17.049446,15.7219692 L26.4808627,15.664319 L27.3012964,20.9637 L18.3253235,21.5664064 L17.049446,15.7219692 Z M37.0131999,9.35505203 L37.4063574,14.049711 L27.7821308,14.1081675 L26.9624905,8.8140274 L37.0131999,9.35505203 Z M48.7079504,10.4939453 L48.7079504,13.9811759 L38.934554,14.0404387 L38.549331,9.43769735 L48.2072795,9.95735526 C48.488163,9.97267483 48.7079504,10.2081133 48.7079504,10.4939453 L48.7079504,10.4939453 Z M25.4073164,8.73057573 L26.2416356,14.1178431 L16.7118303,14.1758964 L15.4058015,8.19237306 L25.4073164,8.73057573 Z M19.7860762,28.2570513 L18.6593685,23.0955469 L27.5389365,22.4988878 L28.3189039,27.5366258 L24.6273491,27.9845233 C24.6249688,27.9849264 24.6225883,27.9849264 24.6206047,27.9849264 L21.7415489,28.3344558 C21.7399621,28.3344558 21.7383751,28.3348589 21.7367883,28.335262 L20.1601908,28.5263542 C19.9852338,28.5473179 19.8245588,28.4320175 19.7860762,28.2570513 L19.7860762,28.2570513 Z M24.6110832,42.0753538 C24.2687069,42.0753538 23.9902038,41.7919406 23.9902038,41.4440239 C23.9902038,41.0961071 24.2687069,40.8130972 24.6110832,40.8130972 C24.9538563,40.8130972 25.2323594,41.0961071 25.2323594,41.4440239 C25.2323594,41.7919406 24.9534595,42.0753538 24.6110832,42.0753538 Z M46.1435001,42.0753538 C45.8011237,42.0753538 45.5222238,41.7919406 45.5222238,41.4440239 C45.5222238,41.0961071 45.8011237,40.8130972 46.1435001,40.8130972 C46.4858763,40.8130972 46.7643795,41.0961071 46.7643795,41.4440239 C46.7643795,41.7919406 46.4858763,42.0753538 46.1435001,42.0753538 Z" id="path-1"></path>
        <filter x="-57.7%" y="-65.2%" width="215.4%" height="230.4%" filterUnits="objectBoundingBox" id="filter-2">
            <feOffset dx="0" dy="0" in="SourceAlpha" result="shadowOffsetOuter1"></feOffset>
            <feGaussianBlur stdDeviation="10" in="shadowOffsetOuter1" result="shadowBlurOuter1"></feGaussianBlur>
            <feColorMatrix values="0 0 0 0 1   0 0 0 0 0.00297256098   0 0 0 0 0.225212069  0 0 0 1 0" type="matrix" in="shadowBlurOuter1"></feColorMatrix>
        </filter>
    </defs>
    <g id="retail" stroke="none" stroke-width="1" fill="none" fill-rule="evenodd">
        <g transform="translate(12.000000, 11.000000)" fill-rule="nonzero" id="Shape">
            <g>
                <use fill="black" fill-opacity="1" filter="url(#filter-2)" xlink:href="#path-1"></use>
                <use fill="#FF0139" xlink:href="#path-1"></use>
            </g>
        </g>
    </g>
</svg>