<?xml version="1.0" encoding="UTF-8"?>
<svg width="60px" height="40px" viewBox="0 0 60 40" version="1.1" xmlns="http://www.w3.org/2000/svg" xmlns:xlink="http://www.w3.org/1999/xlink">
    <!-- Generator: Sketch 64 (93537) - https://sketch.com -->
    <title>sent</title>
    <desc>Created with Sketch.</desc>
    <g id="Товары" stroke="none" stroke-width="1" fill="none" fill-rule="evenodd">
        <g id="Чат" transform="translate(-677.000000, -1440.000000)" fill="#000000" fill-rule="nonzero">
            <g transform="translate(82.000000, 507.000000)" id="write-message">
                <g transform="translate(52.000000, 933.000000)">
                    <g id="sent" transform="translate(543.000000, 0.000000)">
                        <path d="M55.3179191,0.0578034682 L10.8092486,0.0578034682 C8.67375723,0.0578034682 6.93641618,1.79514451 6.93641618,3.93063584 L6.93641618,12.1965318 L0.867052023,12.1965318 C0.388208092,12.1965318 0,12.5846243 0,13.0635838 C0,13.5425434 0.388208092,13.9306358 0.867052023,13.9306358 L11.2716763,13.9306358 C11.7505202,13.9306358 12.1387283,13.5425434 12.1387283,13.0635838 C12.1387283,12.5846243 11.7505202,12.1965318 11.2716763,12.1965318 L8.67052023,12.1965318 L8.67052023,3.93063584 C8.67052023,3.65988439 8.72312139,3.4016185 8.81537572,3.16300578 L25.6523699,20 L8.81537572,36.8369942 C8.72312139,36.5983815 8.67052023,36.3401156 8.67052023,36.0693642 L8.67052023,30.4046243 C8.67052023,29.9256647 8.28231214,29.5375723 7.80346821,29.5375723 C7.32462428,29.5375723 6.93641618,29.9256647 6.93641618,30.4046243 L6.93641618,36.0693642 C6.93641618,38.2048555 8.67375723,39.9421965 10.8092486,39.9421965 L55.3179191,39.9421965 C57.4534104,39.9421965 59.1907514,38.2048555 59.1907514,36.0693642 L59.1907514,3.93063584 C59.1907514,1.79514451 57.4534104,0.0578034682 55.3179191,0.0578034682 Z M40.4747977,20 L57.3117919,3.16300578 C57.4040462,3.4016185 57.4566474,3.65988439 57.4566474,3.93063584 L57.4566474,36.0693642 C57.4566474,36.3401156 57.4040462,36.5983815 57.3117919,36.8369942 L40.4747977,20 Z M55.3179191,1.79190751 C55.5886705,1.79190751 55.8469364,1.84450867 56.0855491,1.93676301 L36.7421965,21.2801156 C34.7138728,23.3086705 31.4134104,23.3086705 29.3849711,21.2801156 L10.0416185,1.93676301 C10.2802312,1.84450867 10.5384971,1.79190751 10.8092486,1.79190751 L55.3179191,1.79190751 Z M10.8092486,38.2080925 C10.5384971,38.2080925 10.2802312,38.1554913 10.0416185,38.063237 L26.8786127,21.2262428 L28.1588439,22.506474 C29.5110983,23.8586127 31.2873988,24.5347977 33.0636994,24.5347977 C34.84,24.5347977 36.616185,23.8586127 37.9684393,22.506474 L39.2486705,21.2262428 L56.0856647,38.063237 C55.847052,38.1554913 55.5887861,38.2080925 55.3180347,38.2080925 L10.8092486,38.2080925 Z" id="Shape"></path>
                        <path d="M7.80346821,15.6647399 C7.32462428,15.6647399 6.93641618,16.0528324 6.93641618,16.5317919 L6.93641618,19.132948 L0.867052023,19.132948 C0.388208092,19.132948 0,19.5210405 0,20 C0,20.4789595 0.388208092,20.867052 0.867052023,20.867052 L14.7398844,20.867052 C15.2187283,20.867052 15.6069364,20.4789595 15.6069364,20 C15.6069364,19.5210405 15.2187283,19.132948 14.7398844,19.132948 L8.67052023,19.132948 L8.67052023,16.5317919 C8.67052023,16.0528324 8.28231214,15.6647399 7.80346821,15.6647399 Z" id="Path"></path>
                        <path d="M11.2716763,27.8034682 C11.7505202,27.8034682 12.1387283,27.4153757 12.1387283,26.9364162 C12.1387283,26.4574566 11.7505202,26.0693642 11.2716763,26.0693642 L8.67052023,26.0693642 L8.67052023,23.4682081 C8.67052023,22.9892486 8.28231214,22.6011561 7.80346821,22.6011561 C7.32462428,22.6011561 6.93641618,22.9892486 6.93641618,23.4682081 L6.93641618,26.0693642 L0.867052023,26.0693642 C0.388208092,26.0693642 0,26.4574566 0,26.9364162 C0,27.4153757 0.388208092,27.8034682 0.867052023,27.8034682 L11.2716763,27.8034682 Z" id="Path"></path>
                    </g>
                </g>
            </g>
        </g>
    </g>
</svg>