<?xml version="1.0" encoding="UTF-8"?>
<svg width="512px" height="465px" viewBox="0 0 512 465" version="1.1" xmlns="http://www.w3.org/2000/svg" xmlns:xlink="http://www.w3.org/1999/xlink">
    <!-- Generator: Sketch 64 (93537) - https://sketch.com -->
    <title>upload</title>
    <desc>Created with Sketch.</desc>
    <g id="Документооборот" stroke="none" stroke-width="1" fill="none" fill-rule="evenodd">
        <g id="Фильтры" transform="translate(-405.000000, -117.000000)" fill="#FF0139" fill-rule="nonzero">
            <g id="upload" transform="translate(405.000000, 117.000000)">
                <path d="M413.492188,128.910156 C396.199219,42.144531 311.84375,-14.171875 225.078125,3.121094 C161.617188,15.769531 111.996094,65.359375 99.308594,128.8125 C37.789062,135.902344 -6.339844,191.519531 0.746094,253.042969 C7.269531,309.664062 55.226562,352.382812 112.222656,352.343777 L192.316406,352.343777 C201.164062,352.343777 208.335938,345.171875 208.335938,336.324219 C208.335938,327.476562 201.164062,320.304688 192.316406,320.304688 L112.222656,320.304688 C67.984375,320.042969 32.339844,283.972656 32.597656,239.738281 C32.859375,195.503906 68.929688,159.855469 113.167969,160.113281 C121.332031,160.117188 128.191406,153.972656 129.089844,145.859375 C137.222656,75.550781 200.8125,25.148438 271.121094,33.28125 C330.230469,40.121094 376.859375,86.746094 383.695312,145.859375 C385.039062,154.117188 392.195312,160.167969 400.5625,160.113281 C444.800781,160.113281 480.660156,195.972656 480.660156,240.210938 C480.660156,284.445312 444.800781,320.304688 400.5625,320.304688 L320.46875,320.304688 C311.621094,320.304688 304.449219,327.476562 304.449219,336.324219 C304.449219,345.171875 311.621094,352.343777 320.46875,352.343777 L400.566406,352.343777 C462.492188,351.957031 512.382812,301.445312 512.002188,239.515625 C511.648438,183.121094 469.46875,135.761719 413.492188,128.910156 L413.492188,128.910156 Z" id="Path"></path>
                <path d="M313.019531,287.464844 C319.167969,293.832031 329.308594,294.007812 335.671875,287.859375 C342.035156,281.714844 342.210938,271.574219 336.066406,265.210938 C335.9375,265.074219 335.804688,264.945312 335.671875,264.816406 L267.734375,196.863281 C261.488281,190.597656 251.34375,190.585938 245.078125,196.832031 C245.070312,196.84375 245.058594,196.851562 245.050781,196.863281 L177.113281,264.816406 C170.75,270.960938 170.574219,281.101562 176.71875,287.464844 C182.867188,293.828125 193.007812,294.003906 199.371094,287.859375 C199.503906,287.730469 199.636719,287.597656 199.765625,287.464844 L240.375,246.839844 L240.375,448.457031 C240.375,457.304688 247.546875,464.476562 256.394531,464.476562 C265.238281,464.476562 272.410156,457.304688 272.410156,448.457031 L272.410156,246.839844 L313.019531,287.464844 Z" id="Path"></path>
            </g>
        </g>
    </g>
</svg>